<svg width="772" height="682" viewBox="0 0 772 682" fill="none" xmlns="http://www.w3.org/2000/svg">
<g filter="url(#filter0_d_55_263)">
<circle cx="389" cy="378" r="300" fill="#FBFF3D"/>
<circle cx="389" cy="378" r="298" stroke="black" stroke-width="4"/>
</g>
<path d="M574.331 90.3235L570.341 82.4486L578.205 78.4379L582.196 86.3128L574.331 90.3235ZM583.211 59.3204C582.167 63.1637 581.799 68.9391 579.166 72.1272C581.331 70.4035 583.499 68.6795 585.667 66.9566C585.506 67.0792 585.348 67.2039 585.19 67.3275C585.917 66.7754 586.643 66.2253 587.369 65.6751C581.638 68.2985 571.205 63.772 565.773 62.0779C555.823 58.9786 545.783 55.5881 536.068 51.812C533.174 54.0872 530.372 56.1089 527.478 58.3841C535.098 53.8854 542.389 48.7658 551.578 48.7597C559.08 48.7551 564.971 56.4668 559.255 62.7105C562.095 60.4726 564.934 58.2361 567.772 55.9986C559.503 61.7763 548.073 55.084 539.683 52.825C530.4 50.3276 527.288 46.5131 530.562 36.3013C527.668 38.5765 524.775 40.85 521.882 43.1242C520.106 49.6891 518.175 56.1731 514.626 62.028C513.792 63.4011 513.131 64.6879 512.071 65.8833C516.54 60.8441 516.077 62.6739 512.372 63.9488C508.432 65.3048 503.899 64.8419 500.019 63.6096C486.349 59.2675 488.859 39.7331 497.251 31.8894C494.579 34.3882 491.255 36.2054 488.571 38.7123C474.568 51.7962 483.361 75.6978 503.694 70.7704C509.455 69.3744 514.677 63.8832 519.102 60.2094C525.926 54.5414 528.358 44.4594 530.564 36.299C529.87 38.8678 523.522 40.8039 521.884 43.122C513.821 54.536 524.587 57.6841 534.029 60.5015C543.647 63.3694 552.595 67.9222 561.437 61.0552C567.033 56.7079 574.533 51.2201 567.188 44.1236C558.851 36.0682 543.247 47.5726 536.068 51.8098C534.72 52.6068 528.511 58.7835 527.477 58.3819C535.926 61.6654 544.552 64.4607 553.072 67.5459C560.534 70.2471 568.702 72.8199 576.708 72.9643C580.138 73.0275 584.186 68.2691 586.599 66.333C590.426 63.261 590.683 56.9413 591.891 52.4964C591.131 55.2976 583.997 56.4241 583.21 59.3203L583.211 59.3204ZM599.896 42.6051C597.083 55.6296 592.655 68.6476 588.447 81.2865C589.385 78.4656 596.319 77.5872 597.29 74.6757C601.498 62.0376 605.925 49.0183 608.739 35.9943C608.166 38.6529 600.493 39.8407 599.896 42.6051Z" fill="black"/>
<path d="M696.577 291.71C695.451 290.463 694.944 289.008 695.057 287.342C695.14 285.704 695.789 284.335 697.006 283.236C698.223 282.136 699.666 281.614 701.334 281.671C702.972 281.754 704.354 282.418 705.481 283.665C706.58 284.882 707.088 286.309 707.005 287.948C706.92 289.643 706.268 291.04 705.051 292.139C703.835 293.239 702.394 293.732 700.728 293.619C699.06 293.563 697.677 292.927 696.577 291.71ZM699.475 289.011C699.904 289.485 700.401 289.737 700.966 289.766C701.528 289.851 702.032 289.692 702.477 289.29C702.952 288.861 703.19 288.349 703.192 287.754C703.191 287.216 702.976 286.71 702.547 286.235C702.145 285.79 701.647 285.538 701.056 285.48C700.491 285.451 699.986 285.638 699.54 286.04C699.095 286.442 698.873 286.913 698.874 287.451C698.873 288.045 699.073 288.565 699.475 289.011ZM701.68 260.575C702.363 259.958 703.218 259.294 704.245 258.581C705.272 257.868 706.512 257.152 707.965 256.433C709.447 255.687 711.21 254.983 713.254 254.322L716.288 261.528C715.073 262.032 713.972 262.515 712.986 262.975C712.029 263.408 711.171 263.86 710.411 264.331C709.68 264.775 709.003 265.279 708.38 265.842C706.926 267.156 706.034 268.556 705.704 270.04C705.371 271.581 705.531 273.16 706.186 274.78C706.81 276.425 707.847 278.05 709.295 279.652C710.957 281.493 712.577 282.778 714.155 283.509C715.702 284.268 717.172 284.611 718.563 284.54C719.925 284.496 721.186 284.191 722.347 283.627C723.539 283.036 724.579 282.338 725.47 281.534C726.687 280.434 727.938 278.926 729.225 277.009C730.541 275.065 731.77 272.606 732.912 269.634L740.55 273.164C740.047 274.696 739.326 276.345 738.387 278.11C737.478 279.848 736.415 281.536 735.2 283.174C734.011 284.841 732.748 286.278 731.413 287.485C730.226 288.557 728.83 289.549 727.227 290.459C725.653 291.342 723.906 292.004 721.986 292.445C720.093 292.915 718.105 293.013 716.024 292.738C713.912 292.489 711.754 291.771 709.548 290.583C707.343 289.395 705.141 287.584 702.942 285.15C701.172 283.192 699.732 281.15 698.621 279.027C697.508 276.96 696.822 274.857 696.562 272.72C696.329 270.613 696.619 268.518 697.433 266.435C698.216 264.379 699.632 262.426 701.68 260.575ZM731.711 259.802C730.879 258.882 730.48 257.814 730.514 256.598C730.574 255.412 731.064 254.403 731.984 253.572C732.904 252.74 733.972 252.341 735.188 252.374C736.431 252.437 737.468 252.929 738.299 253.849C739.104 254.739 739.461 255.791 739.371 257.004C739.309 258.247 738.817 259.284 737.897 260.116C736.977 260.947 735.91 261.318 734.697 261.228C733.511 261.168 732.515 260.693 731.711 259.802Z" fill="black"/>
<path d="M254.843 85.0265C252.333 85.9668 249.767 86.5863 247.145 86.8852C244.561 87.17 242.068 87.0147 239.667 86.4195C237.279 85.8616 235.145 84.7819 233.263 83.1802C231.381 81.5785 229.907 79.3543 228.841 76.5075C227.69 73.436 227.256 70.3952 227.537 67.385C227.805 64.3373 228.691 61.3998 230.194 58.5725C231.698 55.7453 233.74 53.1008 236.32 50.639C238.924 48.1257 241.956 45.9005 245.417 43.9633L250.049 50.6852C246.978 52.5195 244.407 54.3797 242.337 56.2658C240.305 58.1378 238.747 60.0241 237.665 61.9245C236.583 63.8249 235.93 65.6716 235.704 67.4646C235.531 69.2811 235.76 71.0321 236.391 72.7176C236.896 74.0661 237.582 75.1548 238.448 75.9837C239.351 76.7986 240.36 77.3817 241.474 77.7332C242.602 78.1221 243.768 78.3261 244.971 78.3452C246.188 78.4017 247.394 78.3131 248.588 78.0794C249.781 77.8457 250.884 77.5394 251.895 77.1604C254.48 76.1921 256.786 75.0505 258.814 73.7355C260.879 72.4066 262.621 71.0705 264.039 69.7273L269.002 76.1332C268.272 76.9195 267.174 77.8649 265.708 78.9693C264.28 80.0597 262.618 81.1524 260.721 82.2473C258.862 83.3282 256.903 84.2546 254.843 85.0265ZM231.999 58.0885C230.492 58.0553 228.994 57.7623 227.505 57.2094C226.054 56.6425 224.725 55.7736 223.517 54.6029C222.333 53.3806 221.39 51.833 220.689 49.9602C219.804 47.6004 219.658 45.3274 220.248 43.1412C220.839 40.9551 221.989 39.0078 223.698 37.2995C225.407 35.5913 227.479 34.281 229.914 33.3688C231.113 32.9197 232.246 32.5807 233.313 32.3516C234.418 32.1085 235.57 31.9332 236.768 31.8259L238.332 39.7618C237.475 39.8692 236.614 40.0211 235.748 40.2175C234.882 40.4138 234.13 40.6313 233.493 40.8699C232.182 41.3611 231.11 41.9764 230.276 42.7158C229.48 43.4412 228.953 44.258 228.696 45.1662C228.461 46.0229 228.52 46.9194 228.87 47.8559C229.151 48.605 229.642 49.2325 230.345 49.7383C231.084 50.2301 231.927 50.5979 232.872 50.8416C233.804 51.0479 234.782 51.1512 235.808 51.1515C236.819 51.1143 237.762 50.9531 238.638 50.6678L231.999 58.0885Z" fill="black"/>
<path d="M52.002 350.009C50.9226 350.619 49.7931 350.775 48.6137 350.477C47.4691 350.159 46.5916 349.461 45.9814 348.381C45.3711 347.302 45.2151 346.172 45.5133 344.993C45.8462 343.794 46.5525 342.889 47.6319 342.279C48.6765 341.688 49.781 341.569 50.9453 341.922C52.1444 342.255 53.0491 342.961 53.6594 344.041C54.2696 345.12 54.3984 346.242 54.0457 347.406C53.7279 348.551 53.0467 349.419 52.002 350.009ZM58.8845 364.866C56.2381 366.362 53.5789 367.429 50.9067 368.066C48.2345 368.704 45.6712 368.843 43.217 368.485C40.7627 368.126 38.4969 367.247 36.4195 365.849C34.377 364.43 32.6372 362.45 31.2002 359.908C29.8616 357.54 28.9871 355.14 28.5765 352.707C28.2009 350.254 28.212 347.836 28.61 345.451C29.0428 343.047 29.8178 340.679 30.9349 338.347C32.0521 336.015 33.4516 333.777 35.1335 331.631C36.8502 329.466 38.7797 327.433 40.9218 325.533L41.5578 326.414C40.5843 326.643 39.5041 326.886 38.3171 327.143C37.1301 327.401 35.866 327.725 34.5246 328.116C33.218 328.487 31.8539 328.959 30.4323 329.533C29.0258 330.053 27.6087 330.716 26.1811 331.523C24.9275 332.232 23.7928 332.988 22.777 333.792C21.7763 334.541 20.9171 335.257 20.1995 335.938L15.0869 329.455C15.9195 328.571 16.8513 327.699 17.8823 326.841C18.9481 325.963 20.1078 325.169 21.3613 324.46C23.2417 323.397 25.0811 322.587 26.8797 322.03C28.6587 321.438 30.3823 320.992 32.0508 320.692C33.754 320.372 35.3975 320.109 36.9811 319.903C38.5799 319.643 40.1045 319.332 41.5549 318.972C42.9856 318.577 44.3626 318.005 45.6858 317.257L47.775 316.076L52.8832 323.527C51.56 324.275 50.1263 325.315 48.5821 326.647C47.0728 327.96 45.5823 329.469 44.1109 331.174C42.6394 332.879 41.2913 334.721 40.0666 336.7C38.8768 338.659 37.9322 340.686 37.2329 342.782C36.5684 344.858 36.2612 346.915 36.3114 348.955C36.3615 350.994 36.9082 352.936 37.9515 354.782C38.8964 356.453 40.0169 357.704 41.313 358.533C42.6091 359.363 44.0209 359.828 45.5486 359.93C47.0763 360.031 48.6697 359.842 50.3291 359.364C52.0232 358.865 53.7234 358.134 55.4296 357.169C57.3448 356.087 59.1592 354.785 60.873 353.265C62.6215 351.725 64.2717 350.011 65.8234 348.123L71.5673 353.285C69.6946 355.906 67.6524 358.186 65.4406 360.126C63.2288 362.065 61.0434 363.645 58.8845 364.866Z" fill="black"/>
<g clip-path="url(#clip0_55_263)">
<path d="M172 455.018V244.109C172 242.019 172.468 239.956 173.369 238.071C174.271 236.185 175.583 234.526 177.209 233.214C178.835 231.901 180.735 230.97 182.768 230.487C184.802 230.005 186.917 229.984 188.96 230.426L389 273.693L589.04 230.426C591.083 229.984 593.198 230.005 595.232 230.487C597.265 230.97 599.165 231.901 600.791 233.214C602.417 234.526 603.729 236.186 604.631 238.071C605.532 239.956 606 242.02 606 244.109V455.187C606 458.397 604.897 461.509 602.876 464.003C600.855 466.497 598.038 468.22 594.898 468.884L389 512.439L183.092 468.713C179.954 468.046 177.14 466.322 175.121 463.829C173.102 461.337 172 458.226 172 455.018Z" fill="#BC9A7B"/>
<path d="M389 519.435C388.511 519.433 388.023 519.383 387.544 519.285L181.639 475.563C176.938 474.548 172.726 471.957 169.699 468.22C166.673 464.482 165.015 459.823 165 455.014V244.111C164.998 240.976 165.698 237.881 167.049 235.052C168.4 232.223 170.368 229.733 172.808 227.764C175.248 225.796 178.098 224.399 181.149 223.677C184.199 222.954 187.373 222.924 190.436 223.59L389 266.533L587.57 223.59C590.633 222.927 593.806 222.958 596.855 223.681C599.905 224.405 602.753 225.802 605.192 227.77C607.631 229.738 609.598 232.227 610.949 235.055C612.3 237.883 613.001 240.977 613 244.111V455.191C612.982 460 611.321 464.658 608.292 468.393C605.263 472.128 601.049 474.716 596.348 475.726L390.45 519.285C389.973 519.383 389.487 519.433 389 519.435ZM185.986 237.111C185.067 237.111 184.158 237.292 183.309 237.644C182.461 237.996 181.69 238.512 181.041 239.162C180.392 239.812 179.878 240.584 179.528 241.433C179.178 242.283 178.998 243.193 179 244.111V455.014C179.005 456.617 179.557 458.17 180.565 459.415C181.574 460.661 182.977 461.525 184.544 461.863L389 505.285L593.449 462.028C595.015 461.691 596.418 460.829 597.428 459.586C598.437 458.343 598.992 456.793 599 455.191V244.111C599 243.066 598.766 242.035 598.315 241.092C597.865 240.15 597.21 239.319 596.397 238.663C595.584 238.006 594.635 237.54 593.619 237.297C592.603 237.055 591.545 237.043 590.523 237.262L390.477 280.533C389.504 280.752 388.496 280.752 387.523 280.533L187.477 237.262C186.986 237.164 186.487 237.113 185.986 237.111Z" fill="#2C2B2D"/>
<path d="M553.267 431.117L389 470.541L224.733 431.117C221.675 430.383 218.953 428.641 217.006 426.171C215.059 423.702 214 420.648 214 417.503V208.299C214 206.182 214.48 204.093 215.403 202.189C216.327 200.285 217.67 198.615 219.332 197.304C220.994 195.994 222.932 195.078 224.999 194.624C227.066 194.17 229.209 194.191 231.267 194.685L389 232.541L546.733 194.685C548.791 194.191 550.934 194.17 553.001 194.624C555.068 195.077 557.006 195.994 558.668 197.304C560.33 198.615 561.673 200.285 562.597 202.189C563.52 204.093 564 206.182 564 208.299V417.503C564 420.648 562.941 423.702 560.994 426.171C559.047 428.641 556.325 430.383 553.267 431.117Z" fill="#E0E0E2"/>
<path d="M389 477.545C388.45 477.543 387.902 477.478 387.366 477.354L223.099 437.924C218.505 436.834 214.414 434.223 211.492 430.515C208.569 426.807 206.986 422.22 207 417.498V208.305C206.999 205.129 207.719 201.995 209.104 199.137C210.49 196.279 212.506 193.773 214.999 191.807C217.493 189.841 220.401 188.466 223.503 187.786C226.605 187.105 229.82 187.137 232.908 187.879L389 225.34L545.106 187.879C548.193 187.137 551.408 187.106 554.509 187.786C557.61 188.467 560.516 189.842 563.009 191.809C565.502 193.775 567.516 196.281 568.9 199.138C570.284 201.996 571.002 205.13 571 208.305V417.498C571.015 422.221 569.432 426.81 566.507 430.518C563.583 434.227 559.49 436.837 554.895 437.924L390.634 477.354C390.098 477.478 389.55 477.543 389 477.545ZM227.98 201.291C226.124 201.297 224.347 202.039 223.039 203.354C221.73 204.669 220.997 206.45 221 208.305V417.498C220.993 419.071 221.519 420.601 222.493 421.837C223.466 423.073 224.829 423.944 226.359 424.307L389 463.34L551.641 424.307C553.172 423.944 554.535 423.073 555.508 421.837C556.481 420.601 557.007 419.071 557 417.498V208.305C557.003 207.246 556.766 206.201 556.305 205.247C555.845 204.294 555.174 203.458 554.343 202.802C553.512 202.146 552.543 201.688 551.508 201.462C550.474 201.235 549.402 201.247 548.373 201.496L390.634 239.354C389.559 239.6 388.442 239.6 387.366 239.354L229.634 201.496C229.093 201.361 228.537 201.292 227.98 201.291Z" fill="#2C2B2D"/>
<path d="M224.733 431.117L389 470.541V461.653C389 452.219 385.823 443.059 379.982 435.65C374.141 428.241 365.976 423.015 356.802 420.813L214 386.541V417.503C214 420.648 215.059 423.701 217.006 426.171C218.953 428.641 221.675 430.383 224.733 431.117Z" fill="#AFAEB3"/>
<path d="M389 477.545C388.45 477.542 387.902 477.478 387.366 477.353L223.106 437.924C218.51 436.835 214.418 434.225 211.494 430.517C208.57 426.808 206.987 422.22 207 417.498V386.545C207 385.487 207.24 384.442 207.702 383.491C208.164 382.539 208.835 381.704 209.666 381.049C210.5 380.398 211.468 379.942 212.501 379.715C213.534 379.488 214.604 379.495 215.634 379.736L358.437 413.998C369.153 416.545 378.695 422.639 385.513 431.29C392.332 439.942 396.027 450.643 396 461.658V470.545C396 472.401 395.262 474.181 393.949 475.494C392.637 476.807 390.856 477.544 389 477.545ZM221 395.418V417.498C220.993 419.071 221.519 420.601 222.493 421.837C223.466 423.073 224.829 423.944 226.359 424.307H226.366L382 461.672V461.658C382.017 453.79 379.377 446.148 374.507 439.969C369.637 433.79 362.823 429.437 355.169 427.616L221 395.418Z" fill="#2C2B2D"/>
<path d="M389 470.541L553.267 431.117C556.325 430.383 559.047 428.641 560.994 426.171C562.941 423.701 564 420.648 564 417.503V386.541L421.198 420.813C412.024 423.015 403.859 428.241 398.018 435.65C392.176 443.059 389 452.219 389 461.653V470.541Z" fill="#AFAEB3"/>
<path d="M389 477.545C387.144 477.544 385.363 476.807 384.051 475.494C382.738 474.181 382.001 472.401 382 470.545V461.658C381.973 450.644 385.667 439.943 392.485 431.292C399.302 422.641 408.842 416.547 419.557 413.998L562.373 379.736C563.402 379.497 564.471 379.491 565.502 379.718C566.533 379.945 567.501 380.399 568.334 381.048C569.165 381.703 569.837 382.538 570.298 383.49C570.76 384.442 571 385.487 571 386.545V417.498C571.015 422.221 569.432 426.809 566.508 430.518C563.583 434.227 559.491 436.837 554.895 437.924L390.634 477.353C390.098 477.478 389.55 477.542 389 477.545ZM557 395.418L422.824 427.616C415.172 429.439 408.359 433.793 403.491 439.971C398.622 446.15 395.983 453.792 396 461.658V461.672L551.641 424.307C553.172 423.944 554.535 423.073 555.508 421.837C556.481 420.601 557.007 419.071 557 417.498V395.418ZM428.252 348.154C426.543 348.155 424.892 347.53 423.612 346.397C422.332 345.265 421.51 343.703 421.301 342.007C421.093 340.31 421.512 338.596 422.48 337.187C423.448 335.779 424.898 334.773 426.557 334.359L523.805 310.051C524.697 309.828 525.625 309.783 526.534 309.919C527.444 310.055 528.318 310.368 529.106 310.842C529.895 311.316 530.582 311.94 531.129 312.679C531.676 313.418 532.072 314.258 532.295 315.15C532.518 316.043 532.562 316.97 532.427 317.88C532.291 318.789 531.977 319.663 531.504 320.452C531.03 321.24 530.406 321.927 529.667 322.475C528.927 323.022 528.088 323.418 527.195 323.641L429.947 347.949C429.392 348.084 428.823 348.153 428.252 348.154ZM428.252 306.154C426.543 306.155 424.892 305.53 423.612 304.397C422.332 303.265 421.51 301.703 421.301 300.007C421.093 298.31 421.512 296.596 422.48 295.187C423.448 293.779 424.898 292.773 426.557 292.359L523.805 268.051C524.697 267.828 525.625 267.783 526.534 267.919C527.444 268.055 528.318 268.369 529.106 268.842C529.895 269.316 530.582 269.94 531.129 270.679C531.676 271.418 532.072 272.258 532.295 273.15C532.518 274.043 532.562 274.97 532.427 275.88C532.291 276.789 531.977 277.663 531.504 278.452C531.03 279.24 530.406 279.927 529.667 280.475C528.927 281.022 528.088 281.418 527.195 281.641L429.947 305.949C429.392 306.084 428.823 306.153 428.252 306.154ZM428.252 264.154C426.543 264.155 424.892 263.53 423.612 262.397C422.332 261.265 421.51 259.703 421.301 258.007C421.093 256.31 421.512 254.596 422.48 253.187C423.448 251.779 424.898 250.773 426.557 250.359L523.805 226.051C525.607 225.601 527.514 225.886 529.106 226.842C530.698 227.798 531.845 229.348 532.295 231.15C532.745 232.952 532.46 234.859 531.504 236.452C530.547 238.044 528.997 239.191 527.195 239.641L429.947 263.949C429.392 264.084 428.823 264.153 428.252 264.154ZM428.252 390.154C426.543 390.155 424.892 389.53 423.612 388.397C422.332 387.265 421.51 385.703 421.301 384.007C421.093 382.31 421.512 380.596 422.48 379.187C423.448 377.779 424.898 376.773 426.557 376.359L523.805 352.051C525.607 351.601 527.514 351.886 529.106 352.842C530.698 353.798 531.845 355.348 532.295 357.15C532.745 358.952 532.46 360.859 531.504 362.452C530.547 364.044 528.997 365.191 527.195 365.641L429.947 389.949C429.392 390.084 428.823 390.153 428.252 390.154ZM343.507 348.154C342.934 348.153 342.362 348.084 341.805 347.949L244.564 323.641C242.761 323.191 241.212 322.044 240.255 320.452C239.299 318.859 239.014 316.952 239.464 315.15C239.914 313.348 241.061 311.798 242.653 310.842C244.245 309.886 246.152 309.601 247.954 310.051L345.195 334.359C346.852 334.774 348.3 335.78 349.267 337.187C350.234 338.595 350.653 340.307 350.445 342.003C350.238 343.698 349.418 345.258 348.14 346.391C346.863 347.524 345.215 348.151 343.507 348.154ZM343.507 306.154C342.934 306.153 342.362 306.084 341.805 305.949L244.564 281.641C243.671 281.418 242.832 281.022 242.092 280.475C241.353 279.927 240.729 279.24 240.255 278.452C239.299 276.859 239.014 274.952 239.464 273.15C239.687 272.258 240.083 271.418 240.63 270.679C241.177 269.94 241.864 269.316 242.653 268.842C244.245 267.886 246.152 267.601 247.954 268.051L345.195 292.359C346.852 292.774 348.3 293.78 349.267 295.187C350.234 296.595 350.653 298.307 350.445 300.003C350.238 301.698 349.418 303.258 348.14 304.391C346.863 305.524 345.215 306.151 343.507 306.154ZM343.507 264.154C342.934 264.153 342.362 264.084 341.805 263.949L244.564 239.641C243.671 239.418 242.832 239.022 242.092 238.475C241.353 237.927 240.729 237.24 240.255 236.452C239.299 234.859 239.014 232.952 239.464 231.15C239.914 229.348 241.061 227.798 242.653 226.842C244.245 225.886 246.152 225.601 247.954 226.051L345.195 250.359C346.852 250.774 348.3 251.78 349.267 253.187C350.234 254.595 350.653 256.307 350.445 258.003C350.238 259.698 349.418 261.258 348.14 262.391C346.863 263.524 345.215 264.151 343.507 264.154ZM343.507 390.154C342.934 390.153 342.362 390.084 341.805 389.949L244.564 365.641C243.671 365.418 242.832 365.022 242.092 364.475C241.353 363.927 240.729 363.24 240.255 362.452C239.299 360.859 239.014 358.952 239.464 357.15C239.687 356.258 240.083 355.418 240.63 354.679C241.177 353.94 241.864 353.316 242.653 352.842C244.245 351.886 246.152 351.601 247.954 352.051L345.195 376.359C346.852 376.774 348.3 377.78 349.267 379.187C350.234 380.595 350.653 382.307 350.445 384.003C350.238 385.698 349.418 387.258 348.14 388.391C346.863 389.524 345.215 390.151 343.507 390.154Z" fill="#2C2B2D"/>
<path d="M389 477.545C388.081 477.545 387.17 477.365 386.321 477.013C385.471 476.662 384.699 476.146 384.049 475.496C383.399 474.846 382.883 474.074 382.532 473.224C382.18 472.375 381.999 471.464 382 470.545V232.545C382 230.688 382.737 228.908 384.05 227.595C385.363 226.282 387.143 225.545 389 225.545C390.857 225.545 392.637 226.282 393.95 227.595C395.263 228.908 396 230.688 396 232.545V470.545C396.001 471.464 395.82 472.375 395.468 473.224C395.117 474.074 394.601 474.846 393.951 475.496C393.301 476.146 392.529 476.662 391.679 477.013C390.83 477.365 389.919 477.545 389 477.545Z" fill="#2C2B2D"/>
<path d="M565.302 561.19L389.28 512.347L583.046 471.391V547.7C583.046 549.858 582.547 551.986 581.588 553.92C580.63 555.853 579.237 557.539 577.519 558.845C575.801 560.151 573.805 561.042 571.685 561.449C569.566 561.856 567.381 561.767 565.302 561.19Z" fill="#B28966"/>
<path d="M569.1 568.709C567.182 568.705 565.273 568.443 563.426 567.93L387.407 519.094C385.896 518.676 384.57 517.762 383.64 516.5C382.71 515.237 382.231 513.699 382.28 512.132C382.329 510.565 382.903 509.06 383.909 507.858C384.916 506.656 386.297 505.827 387.831 505.504L581.596 464.543C582.615 464.335 583.667 464.353 584.678 464.597C585.69 464.84 586.635 465.302 587.448 465.951C588.258 466.608 588.912 467.437 589.361 468.378C589.811 469.32 590.044 470.349 590.046 471.393V547.695C590.046 553.257 587.842 558.591 583.915 562.53C579.989 566.469 574.662 568.691 569.1 568.709L569.1 568.709ZM567.172 554.449C568.212 554.738 569.305 554.781 570.366 554.577C571.426 554.373 572.425 553.927 573.284 553.273C574.143 552.619 574.839 551.775 575.318 550.808C575.797 549.84 576.046 548.775 576.045 547.695V480.033L418.777 513.269L567.172 554.449Z" fill="#2C2B2D"/>
<path d="M212.978 561.19L389 512.348L195.234 471.291V547.7C195.234 549.858 195.733 551.987 196.692 553.92C197.65 555.853 199.043 557.539 200.761 558.845C202.479 560.151 204.475 561.042 206.595 561.449C208.714 561.856 210.899 561.767 212.978 561.19Z" fill="#B28966"/>
<path d="M209.181 568.709C203.62 568.688 198.294 566.466 194.368 562.527C190.443 558.589 188.238 553.256 188.235 547.695V471.297C188.234 470.254 188.466 469.225 188.915 468.283C189.363 467.342 190.016 466.513 190.826 465.856C191.635 465.2 192.582 464.732 193.596 464.489C194.609 464.245 195.665 464.231 196.684 464.447L390.449 505.504C391.983 505.827 393.364 506.656 394.371 507.858C395.377 509.06 395.951 510.565 396 512.132C396.049 513.699 395.57 515.237 394.64 516.5C393.711 517.762 392.384 518.676 390.873 519.094L214.848 567.93C213.002 568.444 211.096 568.706 209.181 568.709ZM202.235 479.937V547.695C202.236 548.774 202.485 549.838 202.964 550.804C203.443 551.771 204.138 552.614 204.996 553.268C205.854 553.921 206.852 554.368 207.911 554.573C208.97 554.778 210.062 554.736 211.102 554.449L359.53 513.27L202.235 479.937Z" fill="#2C2B2D"/>
</g>
<defs>
<filter id="filter0_d_55_263" x="89" y="78" width="604" height="604" filterUnits="userSpaceOnUse" color-interpolation-filters="sRGB">
<feFlood flood-opacity="0" result="BackgroundImageFix"/>
<feColorMatrix in="SourceAlpha" type="matrix" values="0 0 0 0 0 0 0 0 0 0 0 0 0 0 0 0 0 0 127 0" result="hardAlpha"/>
<feOffset dx="4" dy="4"/>
<feComposite in2="hardAlpha" operator="out"/>
<feColorMatrix type="matrix" values="0 0 0 0 0 0 0 0 0 0 0 0 0 0 0 0 0 0 1 0"/>
<feBlend mode="normal" in2="BackgroundImageFix" result="effect1_dropShadow_55_263"/>
<feBlend mode="normal" in="SourceGraphic" in2="effect1_dropShadow_55_263" result="shape"/>
</filter>
<clipPath id="clip0_55_263">
<rect width="448" height="448" fill="white" transform="translate(165 154)"/>
</clipPath>
</defs>
</svg>
