<svg width="85" height="79" viewBox="0 0 85 79" fill="none" xmlns="http://www.w3.org/2000/svg">
<path d="M40.4212 4.45977L40.421 4.46004C38.3242 6.783 35.822 7.56679 30.6495 8.00115M40.4212 4.45977L9.53559 22.6735C11.462 20.0195 14.2529 18.4344 18.727 17.67C19.0823 17.6094 19.4168 17.5448 19.7024 17.456C19.9886 17.3669 20.3177 17.2268 20.5936 16.9591C21.1688 16.401 21.1688 15.6183 21.1688 15.1243V15.1149C21.1688 14.1094 21.6859 12.8049 22.6187 11.5666C23.5416 10.3415 24.767 9.32204 25.9869 8.82304L25.5933 7.86027L25.9871 8.82296C26.2808 8.70294 26.9458 8.53462 27.8443 8.37265C28.7147 8.21576 29.7222 8.07904 30.6495 8.00115M40.4212 4.45977C40.8693 3.96298 41.3283 3.39379 41.7107 2.87267C42.0213 2.44933 42.3168 2.01024 42.5076 1.64982C42.7677 1.99728 43.0665 2.4209 43.3711 2.88015C44.4244 4.4683 45.5076 5.60606 47.0552 6.39256C48.5646 7.1596 50.429 7.54657 52.9451 7.82188L53.0583 6.78752M40.4212 4.45977L53.0583 6.78752M30.6495 8.00115L30.5625 6.96426L30.6496 8.00115C30.6495 8.00115 30.6495 8.00115 30.6495 8.00115ZM4.66074 31.9247L4.66072 31.9247L1.15631 39.164L5.0748 47.2397C8.4364 54.1673 9.50759 55.9331 10.7518 57.0585L10.7519 57.0585C12.7225 58.8412 15.7458 60.276 18.2803 60.6423L18.2803 60.6423C18.7381 60.7085 19.1368 60.7714 19.4622 60.8491C19.7762 60.924 20.1334 61.0366 20.4391 61.2626C21.1696 61.8025 21.1691 62.6426 21.1688 63.1204L21.1688 63.1481C21.1688 64.5184 21.6082 65.6158 23.0465 67.2563C23.9794 68.3202 24.7167 68.9112 25.7754 69.3321C26.8924 69.7761 28.4223 70.0539 31.0064 70.3385C34.1935 70.6895 36.4308 71.1314 38.1899 72.0837C39.9953 73.061 41.1874 74.5129 42.4385 76.6059L42.5197 76.7417L43.0767 75.8502C44.2125 74.0322 45.3316 72.764 47.0696 71.9021C48.7473 71.0701 50.9144 70.6637 54.0197 70.3217L54.1336 71.356L54.0197 70.3217C56.7858 70.0171 58.4532 69.7015 59.6479 69.2035C60.7789 68.732 61.5341 68.0763 62.4059 66.9322C62.8751 66.3163 63.5217 64.8854 63.7732 63.8254L63.7732 63.8253L64.2764 61.705L64.4303 61.0565L65.0837 60.9251L67.3887 60.4618C70.3426 59.8678 72.2508 59.0092 74.0586 57.0894C75.9336 55.0982 77.7433 51.9233 80.3155 46.5266L81.2548 46.9743L80.3155 46.5266L83.8465 39.119L80.3168 31.7681L81.2548 31.3177L80.3168 31.7681C78.1412 27.2368 76.6427 24.4644 75.2323 22.5986C73.8615 20.7851 72.5749 19.8299 70.7683 18.9744L70.7682 18.9743C70.1013 18.6585 69.4056 18.3713 68.8286 18.1651C68.5395 18.0618 68.2909 17.9826 68.0972 17.9305C67.9453 17.8896 67.8646 17.8758 67.8379 17.8713C67.8257 17.8692 67.8249 17.8691 67.8338 17.8692L67.8413 16.8286M4.66074 31.9247L60.6962 9.71526C61.4311 10.2483 62.2908 11.2954 62.9771 12.478C63.6778 13.6855 64.0614 14.7991 64.0641 15.4217V15.4219C64.0684 16.3376 64.6018 17.003 65.3343 17.3809C66.0081 17.7285 66.8815 17.8624 67.8339 17.8692L67.8413 16.8286M4.66074 31.9247C5.67993 29.8191 6.74557 27.7137 7.64013 26.0199M4.66074 31.9247L7.64013 26.0199M67.8413 16.8286C66.0728 16.816 65.1089 16.3186 65.1047 15.4171L71.2136 18.034C69.8213 17.3745 68.3038 16.832 67.8413 16.8286ZM53.0583 6.78752L52.9451 7.82189M53.0583 6.78752L52.9451 7.82189M7.64013 26.0199C8.55197 24.2934 9.24583 23.0728 9.53556 22.6736L7.64013 26.0199ZM52.9451 7.82189C56.0404 8.16051 57.5476 8.33794 58.5249 8.58505M52.9451 7.82189L58.5249 8.58505M58.5249 8.58505C59.3957 8.80522 59.7996 9.06518 60.6961 9.71522L58.5249 8.58505ZM43.1196 77.7453L43.9591 76.4016L43.1196 77.7453Z" stroke="white" stroke-width="2.08108"/>
</svg>
