<svg width="64" height="64" viewBox="0 0 64 64" fill="none" xmlns="http://www.w3.org/2000/svg">
<g clip-path="url(#clip0_81_52)">
<path d="M11 51V5C11 3.93913 11.4214 2.92172 12.1716 2.17157C12.9217 1.42143 13.9391 1 15 1H53V47" fill="#37B678"/>
<path d="M11 52C10.8687 52.0001 10.7386 51.9743 10.6172 51.924C10.4959 51.8738 10.3856 51.8001 10.2927 51.7073C10.1998 51.6144 10.1262 51.5041 10.076 51.3828C10.0257 51.2614 9.99992 51.1313 10 51V5C10.0014 3.67435 10.5286 2.40338 11.466 1.466C12.4034 0.528624 13.6743 0.00139256 15 1.68411e-07H53C53.1313 -7.60771e-05 53.2614 0.0257377 53.3828 0.0759654C53.5041 0.126193 53.6144 0.19985 53.7073 0.292723C53.8001 0.385597 53.8738 0.495867 53.924 0.617227C53.9743 0.738587 54.0001 0.868657 54 1V47C54 47.2652 53.8946 47.5196 53.7071 47.7071C53.5196 47.8946 53.2652 48 53 48C52.7348 48 52.4804 47.8946 52.2929 47.7071C52.1054 47.5196 52 47.2652 52 47V2H15C14.2046 2.00087 13.4421 2.31722 12.8796 2.87964C12.3172 3.44206 12.0009 4.20462 12 5V51C12.0001 51.1313 11.9743 51.2614 11.924 51.3828C11.8738 51.5041 11.8002 51.6144 11.7073 51.7073C11.6144 51.8001 11.5041 51.8738 11.3828 51.924C11.2614 51.9743 11.1313 52.0001 11 52Z" fill="#2C2B2D"/>
<path d="M15 47H53V57H15C13.9391 57 12.9217 56.5786 12.1716 55.8284C11.4214 55.0783 11 54.0609 11 53V51C11 49.9391 11.4214 48.9217 12.1716 48.1716C12.9217 47.4214 13.9391 47 15 47Z" fill="#E0E0E2"/>
<path d="M53 58H15C13.6743 57.9986 12.4034 57.4714 11.466 56.534C10.5286 55.5966 10.0014 54.3257 10 53V51C10.0014 49.6743 10.5286 48.4034 11.466 47.466C12.4034 46.5286 13.6743 46.0014 15 46H53C53.1313 45.9999 53.2614 46.0257 53.3828 46.076C53.5041 46.1262 53.6144 46.1999 53.7073 46.2927C53.8001 46.3856 53.8738 46.4959 53.924 46.6172C53.9743 46.7386 54.0001 46.8687 54 47V57C54.0001 57.1313 53.9743 57.2614 53.924 57.3828C53.8738 57.5041 53.8001 57.6144 53.7073 57.7073C53.6144 57.8001 53.5041 57.8738 53.3828 57.924C53.2614 57.9743 53.1313 58.0001 53 58ZM15 48C14.2046 48.0009 13.4421 48.3172 12.8796 48.8796C12.3172 49.4421 12.0009 50.2046 12 51V53C12.0009 53.7954 12.3172 54.5579 12.8796 55.1204C13.4421 55.6828 14.2046 55.9991 15 56H52V48H15Z" fill="#2C2B2D"/>
<path d="M23 63L19 61L15 63V53H23V63Z" fill="#E5303E"/>
<path d="M23 64C22.8448 63.9999 22.6917 63.9638 22.5527 63.8945L19 62.1172L15.4473 63.8945C15.2948 63.9709 15.1253 64.0071 14.955 63.9995C14.7846 63.9919 14.619 63.9408 14.474 63.8512C14.3289 63.7615 14.2092 63.6362 14.1263 63.4873C14.0433 63.3383 13.9998 63.1705 14 63V53C13.9999 52.8687 14.0257 52.7386 14.076 52.6172C14.1262 52.4959 14.1998 52.3856 14.2927 52.2927C14.3856 52.1999 14.4959 52.1262 14.6172 52.076C14.7386 52.0257 14.8687 51.9999 15 52H23C23.1313 51.9999 23.2614 52.0257 23.3828 52.076C23.5041 52.1262 23.6144 52.1999 23.7073 52.2927C23.8002 52.3856 23.8738 52.4959 23.924 52.6172C23.9743 52.7386 24.0001 52.8687 24 53V63C24.0002 63.1314 23.9745 63.2615 23.9243 63.3829C23.8741 63.5044 23.8005 63.6147 23.7076 63.7076C23.6147 63.8005 23.5043 63.8741 23.3829 63.9243C23.2615 63.9745 23.1314 64.0002 23 64ZM19 60C19.1553 60 19.3084 60.0361 19.4473 60.1055L22 61.3828V54H16V61.3828L18.5527 60.1055C18.6916 60.0361 18.8447 60 19 60Z" fill="#2C2B2D"/>
<path d="M15 9V37C16.0609 37 17.0783 37.4214 17.8284 38.1716C18.5786 38.9217 19 39.9391 19 41C18.9962 41.7041 18.8047 42.3945 18.4452 43H43.5548C43.1953 42.3945 43.0038 41.7041 43 41C43 39.9391 43.4214 38.9217 44.1716 38.1716C44.9217 37.4214 45.9391 37 47 37C47.7041 37.0038 48.3945 37.1953 49 37.5548V8.4452C48.3945 8.80471 47.7041 8.99622 47 9C45.9391 9 44.9217 8.57857 44.1716 7.82843C43.4214 7.07828 43 6.06087 43 5H19C19 6.06087 18.5786 7.07828 17.8284 7.82843C17.0783 8.57857 16.0609 9 15 9Z" fill="#FDD402"/>
<path d="M43.5547 44H18.4453C18.2694 44 18.0966 43.9536 17.9443 43.8654C17.792 43.7773 17.6657 43.6506 17.5781 43.498C17.4904 43.3455 17.4445 43.1726 17.445 42.9966C17.4456 42.8207 17.4925 42.648 17.5811 42.496C17.8523 42.0439 17.997 41.5272 18 41C17.9991 40.2046 17.6828 39.4421 17.1204 38.8796C16.5579 38.3172 15.7954 38.0009 15 38C14.8687 38.0001 14.7386 37.9743 14.6172 37.924C14.4959 37.8738 14.3856 37.8001 14.2927 37.7073C14.1998 37.6144 14.1262 37.5041 14.076 37.3828C14.0257 37.2614 13.9999 37.1313 14 37V9C13.9999 8.86866 14.0257 8.73859 14.076 8.61723C14.1262 8.49587 14.1998 8.3856 14.2927 8.29272C14.3856 8.19985 14.4959 8.12619 14.6172 8.07596C14.7386 8.02574 14.8687 7.99992 15 8C15.7954 7.99913 16.5579 7.68278 17.1204 7.12036C17.6828 6.55794 17.9991 5.79538 18 5C17.9999 4.86866 18.0257 4.73859 18.076 4.61723C18.1262 4.49587 18.1998 4.3856 18.2927 4.29272C18.3856 4.19985 18.4959 4.12619 18.6172 4.07597C18.7386 4.02574 18.8687 3.99992 19 4H43C43.1313 3.99992 43.2614 4.02574 43.3828 4.07597C43.5041 4.12619 43.6144 4.19985 43.7073 4.29272C43.8001 4.3856 43.8738 4.49587 43.924 4.61723C43.9743 4.73859 44.0001 4.86866 44 5C44.0009 5.79538 44.3172 6.55794 44.8796 7.12036C45.4421 7.68278 46.2046 7.99913 47 8C47.5271 7.99702 48.0437 7.85267 48.496 7.582C48.6479 7.4932 48.8205 7.44607 48.9965 7.44537C49.1724 7.44467 49.3455 7.49043 49.4981 7.57803C49.6507 7.66562 49.7774 7.79194 49.8656 7.94423C49.9537 8.09652 50.0001 8.26937 50 8.44532V37.5547C50.0001 37.7306 49.9537 37.9035 49.8656 38.0558C49.7774 38.208 49.6506 38.3344 49.498 38.4219C49.3454 38.5095 49.1724 38.5553 48.9965 38.5546C48.8205 38.5539 48.6479 38.5068 48.496 38.418C48.0437 38.1473 47.5271 38.003 47 38C46.2046 38.0009 45.4421 38.3172 44.8796 38.8796C44.3172 39.4421 44.0009 40.2046 44 41C44.003 41.5272 44.1477 42.0439 44.4189 42.496C44.5075 42.648 44.5544 42.8207 44.555 42.9966C44.5555 43.1726 44.5096 43.3455 44.4219 43.498C44.3343 43.6506 44.208 43.7773 44.0557 43.8654C43.9034 43.9536 43.7306 44 43.5547 44ZM19.8955 42H42.1045C42.035 41.6712 41.9999 41.3361 42 41C42.0014 39.6743 42.5286 38.4034 43.466 37.466C44.4034 36.5286 45.6743 36.0014 47 36C47.336 36 47.6711 36.0347 48 36.1035V9.89648C47.6711 9.96531 47.336 10 47 10C45.8479 9.99849 44.7315 9.59983 43.839 8.8712C42.9466 8.14257 42.3326 7.12853 42.1006 6H19.8994C19.7015 6.95995 19.2267 7.8409 18.5337 8.53405C17.8407 9.22721 16.9599 9.70221 16 9.9004V36.0996C17.1285 36.332 18.1425 36.9462 18.8711 37.8388C19.5997 38.7314 19.9984 39.8478 20 41C20.0001 41.3361 19.965 41.6712 19.8955 42Z" fill="#2C2B2D"/>
<path d="M25.153 15.3608C26.4353 14.6291 27.8658 14.1951 29.3385 14.0911C28.2671 15.6315 27.6562 17.4451 27.5773 19.3199C27.4984 21.1946 27.9547 23.0531 28.8929 24.6782C29.8311 26.3032 31.2125 27.6276 32.8755 28.4967C34.5386 29.3657 36.4146 29.7435 38.2844 29.5858C37.4403 30.8138 36.3306 31.8361 35.0375 32.5766C33.7444 33.3172 32.3012 33.7571 30.8149 33.8638C29.3286 33.9704 27.8373 33.741 26.4518 33.1927C25.0662 32.6443 23.8219 31.791 22.8112 30.696C21.8004 29.6011 21.0491 28.2926 20.6131 26.8677C20.1771 25.4428 20.0675 23.938 20.2925 22.465C20.5174 20.9919 21.0712 19.5884 21.9126 18.3586C22.754 17.1287 23.8616 16.1042 25.153 15.3608Z" fill="#E0E0E2"/>
<path d="M30.1415 34.9043C27.7319 34.9094 25.3881 34.1185 23.4743 32.6545C21.5604 31.1905 20.1836 29.1354 19.5578 26.8085C18.9321 24.4815 19.0923 22.0131 20.0138 19.7866C20.9352 17.5601 22.5661 15.7003 24.6533 14.4961C26.0636 13.6872 27.6388 13.2084 29.2607 13.0957C29.4489 13.0809 29.6374 13.1197 29.8044 13.2076C29.9714 13.2956 30.1101 13.429 30.2044 13.5925C30.2988 13.756 30.3448 13.9429 30.3373 14.1315C30.3298 14.3201 30.2691 14.5027 30.162 14.6582C29.1979 16.0431 28.6479 17.674 28.5766 19.36C28.5053 21.046 28.9155 22.7174 29.7593 24.1788C30.6031 25.6402 31.8456 26.8311 33.3414 27.6123C34.8373 28.3934 36.5246 28.7325 38.206 28.5898C38.3946 28.5722 38.5842 28.6097 38.7518 28.6977C38.9195 28.7858 39.0579 28.9207 39.1504 29.0859C39.2448 29.2495 39.291 29.4365 39.2835 29.6252C39.2761 29.8139 39.2154 29.9967 39.1084 30.1523C38.1183 31.6192 36.7825 32.82 35.2187 33.6487C33.655 34.4774 31.9113 34.9086 30.1416 34.9043L30.1415 34.9043ZM27.4492 15.4531C26.8228 15.641 26.2202 15.9005 25.6533 16.2266C23.603 17.4134 22.1077 19.3656 21.4958 21.6542C20.8839 23.9429 21.2055 26.3808 22.3898 28.4325C23.5742 30.4842 25.5245 31.9819 27.8124 32.5966C30.1003 33.2113 32.5386 32.8928 34.5917 31.7109C35.1587 31.383 35.6856 30.9903 36.1621 30.5409C34.4826 30.3411 32.8728 29.7524 31.4607 28.8217C30.0485 27.8909 28.8729 26.6436 28.0271 25.179C27.1813 23.7144 26.6887 22.0727 26.5883 20.3843C26.488 18.696 26.7828 17.0075 27.4492 15.453V15.4531Z" fill="#2C2B2D"/>
<path d="M37.2779 17.594L38.8519 14.326L40.3679 17.622L43.8179 18.182L41.2959 20.712L41.8539 24.326L38.7799 22.594L35.6739 24.266L36.2959 20.666L33.8179 18.086L37.2779 17.594Z" fill="#E0E0E2"/>
<path d="M41.8543 25.3262C41.6822 25.326 41.513 25.2817 41.3631 25.1973L38.7684 23.7363L36.1492 25.1484C35.9841 25.2375 35.7972 25.2783 35.61 25.2662C35.4227 25.2541 35.2427 25.1895 35.0904 25.0799C34.9381 24.9703 34.8197 24.8201 34.7488 24.6464C34.6778 24.4727 34.6572 24.2825 34.6892 24.0977L35.2244 20.9941L33.0964 18.7793C32.9689 18.6464 32.8806 18.481 32.8411 18.3011C32.8017 18.1213 32.8126 17.9341 32.8726 17.76C32.9327 17.586 33.0396 17.4319 33.1816 17.3147C33.3236 17.1975 33.4951 17.1217 33.6774 17.0957L36.6081 16.6797L37.9499 13.8926C38.0317 13.7231 38.1597 13.58 38.3191 13.4798C38.4785 13.3797 38.663 13.3264 38.8512 13.3262H38.86C39.0497 13.3279 39.235 13.3835 39.3943 13.4866C39.5535 13.5896 39.6802 13.7359 39.7594 13.9082L41.0534 16.7207L43.9782 17.1953C44.1598 17.2246 44.3297 17.3034 44.4693 17.423C44.6089 17.5427 44.7127 17.6986 44.7694 17.8735C44.826 18.0484 44.8333 18.2356 44.7904 18.4144C44.7474 18.5931 44.656 18.7566 44.5261 18.8867L42.361 21.0605L42.8425 24.1738C42.8645 24.3163 42.8554 24.462 42.8159 24.6006C42.7763 24.7393 42.7073 24.8678 42.6134 24.9773C42.5195 25.0868 42.403 25.1746 42.272 25.2348C42.1409 25.2951 41.9984 25.3262 41.8542 25.3262H41.8543ZM38.7791 21.5938C38.9512 21.5938 39.1204 21.6382 39.2703 21.7227L40.5516 22.4453L40.3074 20.8653C40.2834 20.7104 40.2962 20.5521 40.3449 20.4031C40.3937 20.2541 40.4768 20.1187 40.5877 20.0079L41.7332 18.8575L40.2078 18.6095C40.046 18.5836 39.8931 18.5181 39.7626 18.419C39.6322 18.3198 39.5281 18.1901 39.4598 18.0411L38.8309 16.6739L38.1786 18.0275C38.1071 18.1755 38.0003 18.3037 37.8677 18.4007C37.735 18.4978 37.5805 18.5607 37.4178 18.584L35.8914 18.8008L37.0174 19.9727C37.1257 20.086 37.2059 20.2232 37.2516 20.3731C37.2974 20.5229 37.3075 20.6815 37.2811 20.836L37.0096 22.4121L38.3045 21.7129C38.4504 21.6344 38.6135 21.5935 38.7791 21.5938Z" fill="#2C2B2D"/>
</g>
<defs>
<clipPath id="clip0_81_52">
<rect width="64" height="64" fill="white"/>
</clipPath>
</defs>
</svg>
