<svg width="70" height="70" viewBox="0 0 70 70" fill="none" xmlns="http://www.w3.org/2000/svg">
<path d="M54.6875 42.6562H15.3125V37.3164C15.3125 36.6691 15.5421 36.0428 15.9605 35.5489C16.3789 35.0551 16.9589 34.7256 17.5973 34.6192L35 31.7188L52.4027 34.6192C53.0411 34.7256 53.6211 35.0551 54.0395 35.5489C54.4579 36.0428 54.6875 36.6691 54.6875 37.3164V42.6562Z" fill="#C85AED"/>
<path d="M40.4688 32.8125L35 40.4688L29.5312 32.8125L30.625 29.5312H39.375L40.4688 32.8125Z" fill="#FFD4CF"/>
<path d="M40.0664 31.6053L39.3751 29.5312H30.6251L29.9263 31.6276L32.7912 33.06C33.4749 33.4008 34.2282 33.5786 34.9922 33.5796H34.9923C35.7648 33.5787 36.5263 33.3968 37.2159 33.0486L40.0664 31.6053Z" fill="#FBB8B0"/>
<path d="M43.75 12.0312H26.25V24.8088C26.25 25.5706 26.4621 26.3172 26.8626 26.9652C27.263 27.6131 27.836 28.1367 28.5173 28.4774L33.7694 31.1034C34.1511 31.2943 34.5723 31.3932 34.9992 31.3921C35.4261 31.391 35.8467 31.29 36.2276 31.0972L41.5014 28.4266C42.1778 28.0841 42.746 27.5608 43.1429 26.9148C43.5399 26.2689 43.75 25.5256 43.75 24.7674V12.0312ZM43.75 16.4062H45.6641C46.0267 16.4062 46.3744 16.5503 46.6308 16.8067C46.8872 17.0631 47.0312 17.4108 47.0312 17.7734V20.5078C47.0312 20.8704 46.8872 21.2182 46.6308 21.4746C46.3744 21.731 46.0267 21.875 45.6641 21.875H43.75V16.4062Z" fill="#FFD4CF"/>
<path d="M26.25 21.875H24.3359C24.1564 21.875 23.9786 21.8396 23.8127 21.7709C23.6469 21.7022 23.4961 21.6015 23.3692 21.4746C23.2422 21.3476 23.1415 21.1969 23.0728 21.031C23.0041 20.8651 22.9688 20.6874 22.9688 20.5078V17.7734C22.9688 17.5939 23.0041 17.4161 23.0728 17.2502C23.1415 17.0844 23.2422 16.9336 23.3692 16.8067C23.4961 16.6797 23.6469 16.579 23.8127 16.5103C23.9786 16.4416 24.1564 16.4062 24.3359 16.4062H26.25V21.875Z" fill="#FFD4CF"/>
<path d="M30.625 3.28125H37.7344C39.91 3.28125 41.9965 4.14551 43.5349 5.68389C45.0732 7.22227 45.9375 9.30877 45.9375 11.4844V17.5H38.8281C36.6525 17.5 34.566 16.6357 33.0276 15.0974C31.4893 13.559 30.625 11.4725 30.625 9.29688V3.28125Z" fill="#FA5D3F"/>
<path d="M30.625 12.0312H27.8906C27.1654 12.0312 26.4699 11.7432 25.9571 11.2304C25.4443 10.7176 25.1562 10.0221 25.1562 9.29688V6.01562C25.1563 5.29042 25.4443 4.59492 25.9571 4.08213C26.4699 3.56934 27.1654 3.28125 27.8906 3.28125H30.625V12.0312Z" fill="#D3463D"/>
<path d="M31.7188 17.5H29.5312V19.6875H31.7188V17.5Z" fill="black"/>
<path d="M38.2812 24.6094H36.0938C36.0938 24.8021 35.6785 25.1562 35 25.1562C34.3215 25.1562 33.9062 24.8021 33.9062 24.6094H31.7188C31.7188 26.1426 33.16 27.3438 35 27.3438C36.84 27.3438 38.2812 26.1426 38.2812 24.6094Z" fill="black"/>
<path d="M32.8125 66.7188L9.84375 63.4375V37.1875L32.8125 40.4688V66.7188Z" fill="#FED672"/>
<path d="M9.02344 48.125H11.2109C12.2987 48.125 13.342 48.5571 14.1112 49.3263C14.8804 50.0955 15.3125 51.1388 15.3125 52.2266V53.8672C15.3125 54.955 14.8804 55.9982 14.1112 56.7674C13.342 57.5366 12.2987 57.9688 11.2109 57.9688H9.02344C8.66084 57.9688 8.31309 57.8247 8.05669 57.5683C7.80029 57.3119 7.65625 56.9642 7.65625 56.6016V49.4922C7.65625 49.1296 7.80029 48.7818 8.05669 48.5254C8.31309 48.269 8.66084 48.125 9.02344 48.125Z" fill="#FFD4CF"/>
<path d="M37.1875 66.7188L60.1562 63.4375V37.1875L37.1875 40.4688V66.7188Z" fill="#FED672"/>
<path d="M60.9766 57.9688H58.7891C57.7013 57.9688 56.658 57.5366 55.8888 56.7674C55.1196 55.9982 54.6875 54.955 54.6875 53.8672V52.2266C54.6875 51.1388 55.1196 50.0955 55.8888 49.3263C56.658 48.5571 57.7013 48.125 58.7891 48.125H60.9766C61.3392 48.125 61.6869 48.269 61.9433 48.5254C62.1997 48.7818 62.3437 49.1296 62.3438 49.4922V56.6016C62.3438 56.9642 62.1997 57.3119 61.9433 57.5683C61.6869 57.8247 61.3392 57.9688 60.9766 57.9688Z" fill="#FFD4CF"/>
<path d="M37.1875 40.4688H32.8125V66.7188H37.1875V40.4688Z" fill="#FA5D3F"/>
<path d="M14.2188 45.9375V42.6563L28.4375 44.8438V51.4063L14.2188 49.2188V45.9375Z" fill="#FFFEFA"/>
<path d="M55.7813 42.6563L41.5776 44.8438V56.875L55.7813 54.6875V42.6563Z" fill="#FFFEFA"/>
<path d="M29.5312 51.4063V44.8438C29.5313 44.5825 29.4378 44.3299 29.2676 44.1316C29.0975 43.9333 28.8621 43.8025 28.6039 43.7628L14.3851 41.5753C14.2292 41.5513 14.07 41.5613 13.9184 41.6046C13.7668 41.6479 13.6263 41.7235 13.5066 41.8261C13.3869 41.9288 13.2908 42.0562 13.225 42.1994C13.1591 42.3427 13.125 42.4986 13.125 42.6563V45.9375H15.3125V43.9311L27.3438 45.7821V50.1327L18.7589 48.8212L18.4286 50.9836L28.2723 52.4875C28.4281 52.5112 28.5872 52.5011 28.7387 52.4577C28.8902 52.4143 29.0305 52.3386 29.1501 52.236C29.2696 52.1333 29.3656 52.006 29.4314 51.8628C29.4972 51.7196 29.5312 51.5639 29.5312 51.4063Z" fill="black"/>
<path d="M18.7713 54.1551L18.4165 56.3136L28.397 57.9543L28.7518 55.7957L18.7713 54.1551Z" fill="black"/>
<path d="M16.851 58.5291L16.5088 60.6897L28.5235 62.5928L28.8658 60.4323L16.851 58.5291Z" fill="black"/>
<path d="M41.7925 57.9475L52.715 55.76L52.2854 53.6151L42.6714 55.5405V45.782L54.6877 43.9313V45.9375H56.8752V42.6563C56.8752 42.4985 56.8411 42.3427 56.7752 42.1994C56.7094 42.0561 56.6133 41.9287 56.4936 41.826C56.3739 41.7234 56.2334 41.6478 56.0817 41.6045C55.93 41.5612 55.7708 41.5512 55.6149 41.5753L41.4111 43.7628C41.153 43.8025 40.9175 43.9334 40.7475 44.1317C40.5774 44.3299 40.4839 44.5825 40.4839 44.8438V56.875C40.4839 57.0369 40.5198 57.1967 40.5891 57.343C40.6583 57.4893 40.7592 57.6184 40.8843 57.721C41.0095 57.8236 41.1559 57.8971 41.3129 57.9363C41.47 57.9754 41.6338 57.9793 41.7925 57.9475Z" fill="black"/>
<path d="M53.3981 57.9867L41.3667 60.1736L41.7579 62.3258L53.7893 60.1389L53.3981 57.9867Z" fill="black"/>
<path d="M61.25 47.0464V37.1875C61.25 37.0308 61.2163 36.8759 61.1512 36.7334C61.0862 36.5908 60.9912 36.4639 60.8728 36.3613C60.7544 36.2586 60.6154 36.1826 60.465 36.1383C60.3147 36.0941 60.1566 36.0826 60.0015 36.1048L37.1271 39.3725L41.0785 33.8406L52.2229 35.6981C52.4822 35.7404 52.7273 35.8452 52.9372 36.0033L54.2504 34.2539C53.7594 33.8863 53.1875 33.6416 52.5826 33.5403L41.2339 31.6489L40.7032 30.0568L41.9956 29.4023C42.8541 28.9707 43.5754 28.3084 44.0785 27.4897C44.5816 26.671 44.8466 25.7283 44.8438 24.7674V22.9688H45.6641C46.3165 22.968 46.942 22.7085 47.4034 22.2471C47.8647 21.7858 48.1243 21.1603 48.125 20.5078V17.7734C48.1241 17.369 48.0239 16.971 47.8332 16.6144C47.6425 16.2578 47.3671 15.9534 47.0312 15.7281V11.4844C47.0318 9.85511 46.6041 8.25431 45.791 6.84243L43.8965 7.93604C44.5178 9.01535 44.8445 10.239 44.8438 11.4844V16.4063H38.8281C36.9433 16.4041 35.1362 15.6544 33.8034 14.3216C32.4706 12.9888 31.7209 11.1818 31.7188 9.29688V4.37501H37.7344C39.5272 4.37269 41.2544 5.05007 42.5676 6.27064L44.0552 4.66693C42.3378 3.07053 40.0791 2.18452 37.7344 2.18751H27.8906C26.8757 2.18864 25.9027 2.59233 25.185 3.30999C24.4673 4.02766 24.0636 5.0007 24.0625 6.01563V9.29688C24.0622 9.80645 24.1639 10.3109 24.3617 10.7805C24.5595 11.2502 24.8493 11.6754 25.2141 12.0313H25.1562V15.3125H24.3359C23.6835 15.3133 23.058 15.5728 22.5966 16.0341C22.1353 16.4955 21.8757 17.121 21.875 17.7734V20.5078C21.8757 21.1603 22.1353 21.7858 22.5966 22.2471C23.058 22.7085 23.6835 22.968 24.3359 22.9688H25.1562V24.8089C25.153 25.7744 25.4203 26.7215 25.9279 27.5428C26.4355 28.3642 27.1631 29.0268 28.0282 29.4557L29.2873 30.0853L28.7661 31.6489L17.4175 33.5404C16.8125 33.6416 16.2406 33.8863 15.7496 34.2539L17.0628 36.0033C17.2727 35.8452 17.5178 35.7405 17.7771 35.6981L28.9216 33.8406L32.8729 39.3725L9.9985 36.1048C9.84337 36.0826 9.68529 36.094 9.53496 36.1383C9.38463 36.1825 9.24556 36.2586 9.12718 36.3612C9.00879 36.4639 8.91384 36.5908 8.84877 36.7334C8.78369 36.8759 8.75001 37.0308 8.75 37.1875V47.0464C8.1487 47.1144 7.59344 47.4013 7.19003 47.8523C6.78662 48.3034 6.56326 48.8871 6.5625 49.4922V56.6016C6.56326 57.2067 6.78662 57.7904 7.19003 58.2415C7.59344 58.6925 8.1487 58.9794 8.75 59.0474V63.4375C8.75001 63.7008 8.84499 63.9552 9.01751 64.1541C9.19002 64.353 9.42849 64.483 9.68914 64.5202L16.2516 65.4577L16.5609 63.2922L10.9375 62.4889V59.0625H11.2109C12.5883 59.0609 13.9089 58.5131 14.8828 57.5391C15.8568 56.5651 16.4047 55.2446 16.4062 53.8672V52.2266C16.4047 50.8492 15.8568 49.5286 14.8828 48.5547C13.9089 47.5807 12.5883 47.0328 11.2109 47.0313H10.9375V38.4486L31.7188 41.4174V65.4577L18.7485 63.6048L18.439 65.7703L32.6415 67.7992C32.6651 67.8029 32.6889 67.8058 32.713 67.808L32.7186 67.8085C32.7236 67.8089 32.7287 67.8093 32.7338 67.8097C32.7397 67.8101 32.7456 67.8105 32.7515 67.8108L32.7618 67.8113C32.768 67.8116 32.7743 67.8119 32.7805 67.812L32.7875 67.8122C32.7958 67.8124 32.8042 67.8125 32.8125 67.8125H37.1875C37.2448 67.8125 37.302 67.8081 37.3585 67.7992L60.311 64.5203C60.5716 64.483 60.8101 64.353 60.9826 64.1541C61.155 63.9552 61.25 63.7008 61.25 63.4375V59.0474C61.8513 58.9794 62.4066 58.6925 62.81 58.2415C63.2134 57.7904 63.4367 57.2067 63.4375 56.6016V49.4922C63.4367 48.8871 63.2134 48.3034 62.81 47.8523C62.4066 47.4013 61.8513 47.1144 61.25 47.0464ZM44.8438 18.5938H45.9375V20.5078C45.9374 20.5803 45.9086 20.6498 45.8573 20.7011C45.8061 20.7523 45.7366 20.7812 45.6641 20.7813H44.8438V18.5938ZM25.1562 20.7813H24.3359C24.2634 20.7812 24.1939 20.7523 24.1427 20.7011C24.0914 20.6498 24.0626 20.5803 24.0625 20.5078V17.7734C24.0626 17.701 24.0914 17.6314 24.1427 17.5802C24.1939 17.5289 24.2634 17.5001 24.3359 17.5H25.1562V20.7813ZM11.2109 49.2188C12.0084 49.2197 12.7729 49.5368 13.3368 50.1007C13.9007 50.6646 14.2179 51.4291 14.2188 52.2266V53.8672C14.2179 54.6646 13.9007 55.4292 13.3368 55.993C12.7729 56.5569 12.0084 56.8741 11.2109 56.875H9.02344C8.95094 56.8749 8.88144 56.8461 8.83018 56.7948C8.77892 56.7436 8.75008 56.6741 8.75 56.6016V49.4922C8.75008 49.4197 8.77892 49.3502 8.83018 49.2989C8.88144 49.2477 8.95094 49.2188 9.02344 49.2188H11.2109ZM26.25 9.29688V6.01563C26.2505 5.58066 26.4235 5.16364 26.7311 4.85607C27.0386 4.5485 27.4557 4.37549 27.8906 4.37501H29.5312V10.9375H27.8906C27.4557 10.937 27.0386 10.764 26.7311 10.4564C26.4235 10.1489 26.2505 9.73185 26.25 9.29688ZM29.0065 27.4992C28.5057 27.2509 28.0844 26.8672 27.7905 26.3917C27.4967 25.9162 27.3419 25.3679 27.3438 24.8089V13.086C27.5249 13.112 27.7076 13.125 27.8906 13.125H30.3564C31.0942 14.7539 32.2854 16.1358 33.7878 17.1056C35.2901 18.0754 37.04 18.5921 38.8281 18.5938H42.6562V24.7674C42.6579 25.3237 42.5045 25.8695 42.2132 26.3435C41.9219 26.8175 41.5043 27.2009 41.0072 27.4508L35.7335 30.1214C35.5049 30.2366 35.2525 30.2969 34.9965 30.2975C34.7405 30.2982 34.4878 30.2392 34.2586 30.1252L29.0065 27.4992ZM31.2639 31.0736L33.2802 32.0817C33.8151 32.3477 34.4046 32.4854 35.002 32.4839C35.5993 32.4824 36.1882 32.3417 36.7217 32.073L38.7303 31.0558L39.255 32.6299L35 38.587L30.745 32.63L31.2639 31.0736ZM59.0625 62.4889L38.2812 65.4577V51.4063H36.0938V65.625H33.9062V41.5625H36.0938V49.2188H38.2812V41.4173L59.0625 38.4486V47.0313H58.7891C57.4117 47.0328 56.0911 47.5807 55.1172 48.5547C54.1432 49.5286 53.5953 50.8492 53.5938 52.2266V53.8672C53.5953 55.2446 54.1432 56.5651 55.1172 57.5391C56.0911 58.5131 57.4117 59.0609 58.7891 59.0625H59.0625V62.4889ZM61.25 56.6016C61.2499 56.6741 61.2211 56.7436 61.1698 56.7948C61.1186 56.8461 61.0491 56.8749 60.9766 56.875H58.7891C57.9916 56.8741 57.2271 56.5569 56.6632 55.993C56.0993 55.4292 55.7821 54.6646 55.7812 53.8672V52.2266C55.7821 51.4291 56.0993 50.6646 56.6632 50.1007C57.2271 49.5368 57.9916 49.2197 58.7891 49.2188H60.9766C61.0491 49.2188 61.1186 49.2477 61.1698 49.2989C61.2211 49.3502 61.2499 49.4197 61.25 49.4922V56.6016Z" fill="black"/>
</svg>
