<svg width="30" height="30" viewBox="0 0 30 30" fill="none" xmlns="http://www.w3.org/2000/svg">
<g clip-path="url(#clip0_55_897)">
<path d="M24.2875 16.225C24.3375 15.825 24.375 15.425 24.375 15C24.375 14.575 24.3375 14.175 24.2875 13.775L26.925 11.7125C27.1625 11.525 27.225 11.1875 27.075 10.9125L24.575 6.5875C24.425 6.3125 24.0875 6.2125 23.8125 6.3125L20.7 7.5625C20.05 7.0625 19.35 6.65 18.5875 6.3375L18.1125 3.025C18.075 2.725 17.8125 2.5 17.5 2.5H12.5C12.1875 2.5 11.925 2.725 11.8875 3.025L11.4125 6.3375C10.65 6.65 9.95004 7.075 9.30004 7.5625L6.18754 6.3125C5.90004 6.2 5.57504 6.3125 5.42504 6.5875L2.92504 10.9125C2.76254 11.1875 2.83754 11.525 3.07504 11.7125L5.71254 13.775C5.66254 14.175 5.62504 14.5875 5.62504 15C5.62504 15.4125 5.66254 15.825 5.71254 16.225L3.07504 18.2875C2.83754 18.475 2.77504 18.8125 2.92504 19.0875L5.42504 23.4125C5.57504 23.6875 5.91254 23.7875 6.18754 23.6875L9.30004 22.4375C9.95004 22.9375 10.65 23.35 11.4125 23.6625L11.8875 26.975C11.925 27.275 12.1875 27.5 12.5 27.5H17.5C17.8125 27.5 18.075 27.275 18.1125 26.975L18.5875 23.6625C19.35 23.35 20.05 22.925 20.7 22.4375L23.8125 23.6875C24.1 23.8 24.425 23.6875 24.575 23.4125L27.075 19.0875C27.225 18.8125 27.1625 18.475 26.925 18.2875L24.2875 16.225ZM15 19.375C12.5875 19.375 10.625 17.4125 10.625 15C10.625 12.5875 12.5875 10.625 15 10.625C17.4125 10.625 19.375 12.5875 19.375 15C19.375 17.4125 17.4125 19.375 15 19.375Z" fill="black"/>
</g>
<defs>
<clipPath id="clip0_55_897">
<rect width="30" height="30" fill="white"/>
</clipPath>
</defs>
</svg>
