<svg width="72" height="72" viewBox="0 0 72 72" fill="none" xmlns="http://www.w3.org/2000/svg">
<path d="M68.625 16.875H3.375V61.875H68.625V16.875Z" fill="#007579"/>
<path d="M36 61.875C36 60.6815 35.5259 59.5369 34.682 58.693C33.8381 57.8491 32.6935 57.375 31.5 57.375H7.875V12.375H20.25V52.875H27C29.3869 52.875 31.6761 53.8232 33.364 55.511C35.0518 57.1989 36 59.4881 36 61.875Z" fill="#FF6243"/>
<path d="M64.125 12.375V57.375H40.5C39.3065 57.375 38.1619 57.8491 37.318 58.693C36.4741 59.5369 36 60.6815 36 61.875V16.875C36 15.6815 36.4741 14.5369 37.318 13.693C38.1619 12.8491 39.3065 12.375 40.5 12.375H64.125Z" fill="#FFA733"/>
<path d="M36 16.875V61.875C36 59.4881 35.0518 57.1989 33.364 55.511C31.6761 53.8232 29.3869 52.875 27 52.875H20.25V7.875H27C29.3869 7.875 31.6761 8.82321 33.364 10.511C35.0518 12.1989 36 14.4881 36 16.875Z" fill="#FFDAAA"/>
<path d="M19.125 57.375V66.375L15.75 63L12.375 66.375V57.375H19.125Z" fill="#006DF0"/>
<path d="M59.625 57.375H52.875V66.375H59.625V57.375Z" fill="#46F8FF"/>
<path d="M59.625 12.375V29.25L54 24.75L48.375 29.25V12.375H59.625Z" fill="#FFDA44"/>
<path d="M59.625 57.375H52.875V58.5H59.625V57.375Z" fill="#00D7DF"/>
<path d="M19.125 57.375H12.375V58.5H19.125V57.375Z" fill="#005ECE"/>
</svg>
