<svg width="72" height="72" viewBox="0 0 72 72" fill="none" xmlns="http://www.w3.org/2000/svg">
<path d="M67.5 13.5H4.5C3.87868 13.5 3.375 14.0037 3.375 14.625V59.625C3.375 60.2463 3.87868 60.75 4.5 60.75H67.5C68.1213 60.75 68.625 60.2463 68.625 59.625V14.625C68.625 14.0037 68.1213 13.5 67.5 13.5Z" fill="url(#paint0_linear_55_221)"/>
<path d="M63 10.125V51.75C63 52.0484 62.8815 52.3345 62.6705 52.5455C62.4595 52.7565 62.1734 52.875 61.875 52.875H48.06C44.741 52.8724 41.4671 53.6428 38.4975 55.125L36.5063 56.115C35.7188 56.5088 35.235 55.8788 33.5025 55.125C30.5329 53.6428 27.259 52.8724 23.94 52.875H10.125C9.82663 52.875 9.54048 52.7565 9.32951 52.5455C9.11853 52.3345 9 52.0484 9 51.75V10.125C9 9.82663 9.11853 9.54048 9.32951 9.32951C9.54048 9.11853 9.82663 9 10.125 9H24.75C28.1409 9.11742 31.4671 9.96143 34.5038 11.475L36 12.2175L37.4963 11.475C40.7795 9.84631 44.395 8.99922 48.06 9H61.875C62.1734 9 62.4595 9.11853 62.6705 9.32951C62.8815 9.54048 63 9.82663 63 10.125Z" fill="url(#paint1_linear_55_221)"/>
<path d="M24.75 9V34.875C24.749 35.0776 24.6932 35.2761 24.5887 35.4497C24.4841 35.6232 24.3347 35.7653 24.1561 35.861C23.9775 35.9566 23.7764 36.0022 23.574 35.993C23.3716 35.9839 23.1754 35.9202 23.0063 35.8087L20.25 33.975L17.4938 35.8087C17.3246 35.9202 17.1284 35.9839 16.926 35.993C16.7236 36.0022 16.5225 35.9566 16.3439 35.861C16.1653 35.7653 16.0159 35.6232 15.9113 35.4497C15.8068 35.2761 15.751 35.0776 15.75 34.875V9H24.75Z" fill="url(#paint2_linear_55_221)"/>
<path d="M61.875 9H48.06C43.8304 9.04086 39.6806 10.1557 36 12.24V56.25C37.125 56.25 40.8375 52.875 48.06 52.875H61.875C62.1734 52.875 62.4595 52.7565 62.6705 52.5455C62.8815 52.3345 63 52.0484 63 51.75V10.125C63 9.82663 62.8815 9.54048 62.6705 9.32951C62.4595 9.11853 62.1734 9 61.875 9Z" fill="url(#paint3_linear_55_221)"/>
<path d="M42.75 42.75H56.25V45H42.75V42.75Z" fill="url(#paint4_linear_55_221)"/>
<path d="M42.75 38.25H51.8963V40.5H42.75V38.25Z" fill="url(#paint5_linear_55_221)"/>
<path d="M42.75 33.75H56.25V36H42.75V33.75Z" fill="url(#paint6_linear_55_221)"/>
<path d="M42.75 29.25H51.8963V31.5H42.75V29.25Z" fill="url(#paint7_linear_55_221)"/>
<path d="M42.75 24.75H56.25V27H42.75V24.75Z" fill="url(#paint8_linear_55_221)"/>
<path d="M67.5 13.5H63V10.125C63 9.82663 62.8815 9.54048 62.6705 9.32951C62.4595 9.11853 62.1734 9 61.875 9H48.06C43.8304 9.04086 39.6806 10.1557 36 12.24C32.3172 10.1612 28.1688 9.04673 23.94 9H10.125C9.82663 9 9.54048 9.11853 9.32951 9.32951C9.11853 9.54048 9 9.82663 9 10.125V13.5H4.5C4.20163 13.5 3.91548 13.6185 3.7045 13.8295C3.49353 14.0405 3.375 14.3266 3.375 14.625V59.625C3.375 59.9234 3.49353 60.2095 3.7045 60.4205C3.91548 60.6315 4.20163 60.75 4.5 60.75H67.5C67.7984 60.75 68.0845 60.6315 68.2955 60.4205C68.5065 60.2095 68.625 59.9234 68.625 59.625V14.625C68.625 14.3266 68.5065 14.0405 68.2955 13.8295C68.0845 13.6185 67.7984 13.5 67.5 13.5ZM48.06 11.25H60.75V50.625H48.06C44.2588 50.674 40.5189 51.5898 37.125 53.3025V14.1975C40.4615 12.3047 44.2242 11.2905 48.06 11.25ZM22.5 11.25V32.7712L20.8687 31.6462C20.6851 31.5253 20.4699 31.4608 20.25 31.4608C20.0301 31.4608 19.8149 31.5253 19.6313 31.6462L18 32.7712V11.25H22.5ZM11.25 11.25H15.75V34.875C15.751 35.0776 15.8068 35.2761 15.9113 35.4497C16.0159 35.6232 16.1653 35.7653 16.3439 35.861C16.5225 35.9566 16.7236 36.0022 16.926 35.993C17.1284 35.9839 17.3246 35.9202 17.4938 35.8087L20.25 33.975L23.0063 35.8087C23.1754 35.9202 23.3716 35.9839 23.574 35.993C23.7764 36.0022 23.9775 35.9566 24.1561 35.861C24.3347 35.7653 24.4841 35.6232 24.5887 35.4497C24.6932 35.2761 24.749 35.0776 24.75 34.875V11.25C28.3074 11.4189 31.7755 12.4208 34.875 14.175V53.3025C31.4951 51.5522 27.7462 50.6343 23.94 50.625H11.25V11.25ZM66.375 58.5H5.625V15.75H9V51.75C9 52.0484 9.11853 52.3345 9.32951 52.5455C9.54048 52.7565 9.82663 52.875 10.125 52.875H23.94C27.259 52.8724 30.5329 53.6428 33.5025 55.125C35.3025 55.9125 35.7525 56.5088 36.5063 56.115L38.4975 55.125C41.4671 53.6428 44.741 52.8724 48.06 52.875H61.875C62.1734 52.875 62.4595 52.7565 62.6705 52.5455C62.8815 52.3345 63 52.0484 63 51.75V15.75H66.375V58.5Z" fill="url(#paint9_linear_55_221)"/>
<defs>
<linearGradient id="paint0_linear_55_221" x1="36" y1="60.75" x2="36" y2="13.5" gradientUnits="userSpaceOnUse">
<stop stop-color="#002237"/>
<stop offset="1" stop-color="#003352"/>
</linearGradient>
<linearGradient id="paint1_linear_55_221" x1="36" y1="9" x2="36" y2="56.25" gradientUnits="userSpaceOnUse">
<stop stop-color="#E4991F"/>
<stop offset="1" stop-color="#D4651C"/>
</linearGradient>
<linearGradient id="paint2_linear_55_221" x1="20.25" y1="9" x2="20.25" y2="36" gradientUnits="userSpaceOnUse">
<stop stop-color="#137DBF"/>
<stop offset="1" stop-color="#02476C"/>
</linearGradient>
<linearGradient id="paint3_linear_55_221" x1="49.5" y1="9" x2="49.5" y2="56.25" gradientUnits="userSpaceOnUse">
<stop stop-color="#FFC033"/>
<stop offset="1" stop-color="#EF8E2E"/>
</linearGradient>
<linearGradient id="paint4_linear_55_221" x1="49.5" y1="42.75" x2="49.5" y2="45" gradientUnits="userSpaceOnUse">
<stop stop-color="#000406"/>
<stop offset="1" stop-color="#001521"/>
</linearGradient>
<linearGradient id="paint5_linear_55_221" x1="47.3175" y1="38.25" x2="47.3175" y2="40.5" gradientUnits="userSpaceOnUse">
<stop stop-color="#000406"/>
<stop offset="1" stop-color="#001521"/>
</linearGradient>
<linearGradient id="paint6_linear_55_221" x1="2.23517e-06" y1="33.75" x2="1.125" y2="36" gradientUnits="userSpaceOnUse">
<stop stop-color="#000406"/>
<stop offset="1" stop-color="#001521"/>
</linearGradient>
<linearGradient id="paint7_linear_55_221" x1="47.3175" y1="29.25" x2="47.3175" y2="31.5" gradientUnits="userSpaceOnUse">
<stop stop-color="#000406"/>
<stop offset="1" stop-color="#001521"/>
</linearGradient>
<linearGradient id="paint8_linear_55_221" x1="2.23517e-06" y1="24.75" x2="1.125" y2="27" gradientUnits="userSpaceOnUse">
<stop stop-color="#000406"/>
<stop offset="1" stop-color="#001521"/>
</linearGradient>
<linearGradient id="paint9_linear_55_221" x1="36" y1="9" x2="36" y2="60.75" gradientUnits="userSpaceOnUse">
<stop stop-color="#000406"/>
<stop offset="1" stop-color="#001521"/>
</linearGradient>
</defs>
</svg>
