<svg width="64" height="64" viewBox="0 0 64 64" fill="none" xmlns="http://www.w3.org/2000/svg">
<g clip-path="url(#clip0_81_88)">
<path d="M31.9998 1.46541H1.46533V31.9997H31.9998V1.46541Z" fill="#FFE47E"/>
<path d="M62.5345 1.46541H32V31.9997H62.5345V1.46541Z" fill="#7E9EFF"/>
<path d="M62.5345 31.9998H32V62.5341H62.5345V31.9998Z" fill="#FF847E"/>
<path d="M31.9998 31.9998H1.46533V62.5341H31.9998V31.9998Z" fill="#7EFF86"/>
<path fill-rule="evenodd" clip-rule="evenodd" d="M0 1.46551V62.5345C0 63.3439 0.656083 64 1.46551 64H62.5345C62.936 64 63.2998 63.8385 63.5645 63.577L63.6251 63.5133L63.6819 63.4462L63.7691 63.3243L63.8272 63.2253L63.8706 63.1375C63.8962 63.0809 63.9182 63.0224 63.9366 62.9623L63.9367 62.9616C63.9654 62.8672 63.9849 62.7687 63.994 62.6672L64 62.5345V1.46551C64 0.656083 63.3439 0 62.5345 0H1.46551C0.656083 0 0 0.656083 0 1.46551ZM30.5345 61.069V33.4655H2.93101V61.069H30.5345ZM45.9535 61.069H33.4655V33.4655H61.069V61.069H45.9535ZM16.0556 45.1946L12.6717 41.8109C12.0998 41.2388 11.171 41.2388 10.5992 41.8109C10.0271 42.3827 10.0271 43.3114 10.5992 43.8834L13.9831 47.2672L10.5992 50.6511C10.0271 51.2231 10.0271 52.1518 10.5992 52.7236C11.171 53.2956 12.0998 53.2956 12.6717 52.7236L16.0556 49.3397L19.4395 52.7236C20.0114 53.2956 20.9401 53.2956 21.5121 52.7236C22.0839 52.1518 22.0839 51.2231 21.5121 50.6511L18.1281 47.2672L21.5121 43.8834C22.0839 43.3114 22.0839 42.3827 21.5121 41.8109C20.9401 41.2388 20.0114 41.2388 19.4395 41.8109L16.0556 45.1946ZM42.2349 51.8582H52.6028C53.4116 51.8582 54.0683 51.2017 54.0683 50.3927C54.0683 49.5839 53.4116 48.9272 52.6028 48.9272H42.2349C41.426 48.9272 40.7694 49.5839 40.7694 50.3927C40.7694 51.2017 41.426 51.8582 42.2349 51.8582ZM41.9317 45.6071H52.2996C53.1084 45.6071 53.7651 44.9506 53.7651 44.1416C53.7651 43.3328 53.1084 42.6761 52.2996 42.6761H41.9317C41.1228 42.6761 40.4661 43.3328 40.4661 44.1416C40.4661 44.9506 41.1228 45.6071 41.9317 45.6071ZM2.93101 2.93101V30.5345H30.5345V2.93101H2.93101ZM33.4655 2.93101H61.069V30.5345H33.4655V2.93101ZM14.5901 15.2673H9.80454C8.99573 15.2673 8.33903 15.9239 8.33903 16.7328C8.33903 17.5416 8.99573 18.1983 9.80454 18.1983H14.5901V22.9839C14.5901 23.7927 15.2468 24.4494 16.0556 24.4494C16.8644 24.4494 17.5211 23.7927 17.5211 22.9839V18.1983H22.3067C23.1155 18.1983 23.7722 17.5416 23.7722 16.7328C23.7722 15.9239 23.1155 15.2673 22.3067 15.2673H17.5211V10.4818C17.5211 9.6728 16.8644 9.01625 16.0556 9.01625C15.2468 9.01625 14.5901 9.6728 14.5901 10.4818V15.2673ZM51.6874 19.0749C50.5405 19.0749 49.6092 20.006 49.6092 21.1529C49.6092 22.2999 50.5405 23.231 51.6874 23.231C52.8344 23.231 53.7655 22.2999 53.7655 21.1529C53.7655 20.006 52.8344 19.0749 51.6874 19.0749ZM50.6511 11.2764L41.8109 20.1166C41.2388 20.6886 41.2388 21.6173 41.8109 22.1891C42.3827 22.7611 43.3114 22.7611 43.8834 22.1891L52.7236 13.3489C53.2956 12.7769 53.2956 11.8482 52.7236 11.2764C52.1518 10.7044 51.2231 10.7044 50.6511 11.2764ZM42.847 10.2345C41.7001 10.2345 40.769 11.1656 40.769 12.3126C40.769 13.4595 41.7001 14.3908 42.847 14.3908C43.994 14.3908 44.9251 13.4595 44.9251 12.3126C44.9251 11.1656 43.994 10.2345 42.847 10.2345Z" fill="#232323"/>
</g>
<defs>
<clipPath id="clip0_81_88">
<rect width="64" height="64" fill="white"/>
</clipPath>
</defs>
</svg>
