<svg width="30" height="30" viewBox="0 0 30 30" fill="none" xmlns="http://www.w3.org/2000/svg">
<path d="M24.375 1.875H5.625C4.58906 1.875 3.75 2.71406 3.75 3.75V5.625H2.8125C2.295 5.625 1.875 6.045 1.875 6.5625C1.875 7.08 2.295 7.5 2.8125 7.5C4.49531 7.5 1.73906 7.5 5.625 7.5C6.1425 7.5 6.5625 7.92 6.5625 8.4375C6.5625 8.955 6.1425 9.375 5.625 9.375H3.75V20.625H2.8125C2.295 20.625 1.875 21.045 1.875 21.5625C1.875 22.08 2.295 22.5 2.8125 22.5C4.49531 22.5 1.73906 22.5 5.625 22.5C6.1425 22.5 6.5625 22.92 6.5625 23.4375C6.5625 23.955 6.1425 24.375 5.625 24.375H3.75V26.25C3.75 27.2859 4.58906 28.125 5.625 28.125H24.375C25.4109 28.125 26.25 27.2859 26.25 26.25V3.75C26.25 2.71406 25.4109 1.875 24.375 1.875ZM15 6.5625C17.0709 6.5625 18.75 8.24156 18.75 10.3125C18.75 12.3834 17.0709 14.0625 15 14.0625C12.9291 14.0625 11.25 12.3834 11.25 10.3125C11.25 8.24156 12.9291 6.5625 15 6.5625ZM20.625 22.5H9.375V20.625C9.375 17.5181 11.8931 15 15 15C18.1069 15 20.625 17.5181 20.625 20.625V22.5Z" fill="black"/>
</svg>
