<svg width="76" height="73" viewBox="0 0 76 73" fill="none" xmlns="http://www.w3.org/2000/svg">
<path d="M42.2481 7.95143L42.2481 7.95149L42.2573 7.95409L73.513 16.8819L73.5235 16.8849L73.534 16.8876C74.011 17.009 74.3612 17.4681 74.3612 18.003V50.5968C74.3612 51.4062 73.6277 51.9206 72.9595 51.7206L72.9595 51.7205L72.9504 51.7179L41.7139 42.7955C41.1563 42.6001 40.8464 42.1564 40.8464 41.6689V9.07519C40.8464 8.26578 41.58 7.75141 42.2481 7.95143ZM16.7045 19.762L16.6938 19.7589L16.683 19.7562C16.206 19.6348 15.8558 19.1757 15.8558 18.6408V1.91874C15.8558 1.10933 16.5893 0.594953 17.2575 0.794976L17.2575 0.795028L17.2661 0.797493L33.3464 5.40313L33.3572 5.40621L33.368 5.40896C33.8449 5.53032 34.1952 5.98947 34.1952 6.52438V23.2464C34.1952 24.0558 33.4616 24.5702 32.7935 24.3702L32.7935 24.3701L32.7849 24.3676L16.7045 19.762ZM33.4165 29.7069L33.427 29.7099L33.4376 29.7126C33.9404 29.8405 34.2328 30.3019 34.1981 30.6904L34.1952 30.7237V30.7571V63.3509C34.1952 64.1603 33.4616 64.6747 32.7935 64.4746L32.7935 64.4746L32.7833 64.4717L1.59714 55.6147L1.5872 55.6118L1.57719 55.6093C1.10026 55.4879 0.75 55.0288 0.75 54.4939V21.9001C0.75 21.0907 1.48357 20.5763 2.15171 20.7764L2.15169 20.7764L2.16081 20.779L33.4165 29.7069ZM42.3178 48.0559L42.3177 48.056L42.3264 48.0584L58.3765 52.6554C58.8525 52.8416 59.2014 53.2846 59.2554 53.8192V70.5073C59.2554 71.3167 58.5219 71.8311 57.8538 71.631L57.8451 71.6286L41.7648 67.0229L41.7541 67.0199L41.7433 67.0171C41.2663 66.8957 40.9161 66.4366 40.9161 65.9017V49.1797C40.9161 48.3703 41.6496 47.8559 42.3178 48.0559Z" fill="#FDD030" stroke="black" stroke-width="1.5"/>
</svg>
