<svg width="688" height="416" viewBox="0 0 688 416" fill="none" xmlns="http://www.w3.org/2000/svg">
<g filter="url(#filter0_d_187_32)">
<circle cx="382" cy="200" r="159" fill="#FBFF3D" stroke="black" stroke-width="4"/>
<rect x="223" y="199" width="461" height="196" fill="#FBFF3D" stroke="black" stroke-width="4"/>
</g>
<g clip-path="url(#clip0_187_32)">
<path d="M18.3785 249.676L40.2734 284.341L35.2006 287.545L15.9758 257.108C15.2676 255.987 15.0338 254.63 15.3259 253.336C15.6179 252.043 16.4119 250.918 17.533 250.21L18.3785 249.676Z" fill="#FF5023"/>
<path d="M45.4335 232.588L18.3784 249.676L37.6032 280.113L64.6583 263.024L45.4335 232.588Z" fill="#FFDAAA"/>
<path d="M57.0028 213.452L29.9478 230.541L49.1726 260.978L76.2276 243.889L57.0028 213.452Z" fill="#009698"/>
<path d="M55.134 221.729L38.2246 232.41L42.4968 239.174L59.4062 228.493L55.134 221.729Z" fill="#FFEB99"/>
<path d="M65.4151 266.095L39.2056 282.65L41.3417 286.031L67.5512 269.477L65.4151 266.095Z" fill="#E0E0E2"/>
<path d="M76.984 246.96L50.7744 263.514L52.9105 266.896L79.1201 250.342L76.984 246.96Z" fill="#E0E0E2"/>
<path d="M39.2052 282.65L41.3413 286.031L68.3963 268.943L69.9984 271.479L42.0979 289.102C40.9767 289.81 39.6201 290.044 38.3266 289.752C37.0331 289.46 35.9085 288.666 35.2004 287.545C34.4922 286.423 34.2585 285.067 34.5505 283.773C34.8425 282.48 35.6365 281.355 36.7576 280.647L64.6581 263.024L66.2602 265.561L39.2052 282.65Z" fill="#FF7956"/>
<path d="M29.9475 230.541L51.8424 265.205L46.7696 268.409L27.4813 237.872C26.7957 236.755 26.5813 235.413 26.8852 234.138C27.1891 232.864 27.9864 231.762 29.102 231.075L29.9475 230.541Z" fill="#1E81CE"/>
<path d="M76.9841 246.96L77.8295 246.426L76.2275 243.889L48.327 261.512C47.2058 262.22 46.4119 263.345 46.1198 264.638C45.8278 265.932 46.0616 267.288 46.7697 268.409C47.4779 269.531 48.6024 270.325 49.8959 270.617C51.1895 270.909 52.546 270.675 53.6672 269.967L81.5677 252.344L79.9656 249.808L52.9106 266.896L50.7745 263.514L76.9841 246.96Z" fill="#1A6FB0"/>
<path d="M56.4687 212.607L28.5682 230.23C27.224 231.081 26.2724 232.43 25.922 233.982C25.5717 235.533 25.8513 237.161 26.6995 238.507L28.8356 241.888L16.999 249.365C15.6549 250.216 14.7032 251.565 14.3529 253.117C14.0025 254.669 14.2821 256.296 15.1303 257.642L34.3551 288.079C35.206 289.423 36.5554 290.374 38.1071 290.725C39.6589 291.075 41.2863 290.796 42.6321 289.947L70.5326 272.325C70.7568 272.183 70.9156 271.958 70.974 271.699C71.0324 271.441 70.9857 271.169 70.844 270.945L69.242 268.409C69.1003 268.184 68.8754 268.026 68.6167 267.967C68.358 267.909 68.0867 267.956 67.8625 268.097L66.7944 266.406C67.0187 266.265 67.1775 266.04 67.2359 265.781C67.2943 265.522 67.2475 265.251 67.1059 265.027L66.0378 263.336L82.1018 253.189C82.326 253.048 82.4848 252.823 82.5432 252.564C82.6016 252.305 82.5548 252.034 82.4132 251.81L80.8111 249.274C80.6695 249.049 80.4446 248.891 80.1859 248.832C79.9272 248.774 79.6559 248.82 79.4317 248.962L78.3636 247.271C78.5878 247.13 78.7466 246.905 78.805 246.646C78.8634 246.387 78.8167 246.116 78.6751 245.892L57.8482 212.918C57.7065 212.694 57.4816 212.535 57.2229 212.477C56.9642 212.418 56.6929 212.465 56.4687 212.607V212.607ZM76.4501 246.114L51.086 262.135L50.552 261.289L75.9161 245.269L76.4501 246.114ZM53.1332 269.121C52.2363 269.688 51.151 269.875 50.1162 269.641C49.0814 269.408 48.1818 268.772 47.6152 267.875C47.0487 266.979 46.8617 265.893 47.0953 264.858C47.329 263.824 47.9641 262.924 48.861 262.357L53.1332 269.121ZM29.6362 231.921L47.793 260.667C46.5436 261.456 45.6316 262.681 45.2335 264.105L28.3904 237.439C27.8239 236.542 27.6369 235.456 27.8705 234.422C28.1041 233.387 28.7393 232.487 29.6362 231.921ZM45.9243 268.944C46.7139 270.193 47.939 271.105 49.3624 271.503L37.9148 278.734L19.758 249.988L29.9036 243.579L45.9243 268.944ZM18.067 251.056L36.2238 279.802C34.9744 280.591 34.0624 281.816 33.6643 283.24L16.8212 256.574C16.2547 255.677 16.0677 254.592 16.3013 253.557C16.535 252.522 17.1701 251.622 18.067 251.056V251.056ZM36.0461 287.011C35.4795 286.114 35.2925 285.028 35.5262 283.994C35.7598 282.959 36.3949 282.059 37.2919 281.493L41.564 288.256C40.6671 288.823 39.5819 289.01 38.5471 288.776C37.5122 288.543 36.6126 287.908 36.0461 287.011ZM68.6191 271.168L43.255 287.188L42.721 286.343L68.0851 270.322L68.6191 271.168ZM66.1715 269.165L41.6529 284.652L40.5849 282.961L65.1035 267.474L66.1715 269.165ZM64.8809 265.249L39.5168 281.27L38.9828 280.425L64.3469 264.404L64.8809 265.249ZM80.1883 252.033L54.8242 268.053L54.2901 267.208L79.6542 251.187L80.1883 252.033ZM77.7407 250.03L53.2221 265.517L52.154 263.826L76.6727 248.339L77.7407 250.03ZM74.848 243.578L49.4839 259.599L31.3271 230.853L56.6912 214.832L74.848 243.578Z" fill="black"/>
<path d="M54.6001 220.884L37.6907 231.564C37.4665 231.706 37.3077 231.931 37.2493 232.19C37.1909 232.448 37.2376 232.72 37.3792 232.944L41.6514 239.708C41.7931 239.932 42.018 240.091 42.2767 240.149C42.5354 240.207 42.8067 240.161 43.0309 240.019L59.9403 229.339C60.1645 229.197 60.3233 228.972 60.3817 228.713C60.4401 228.455 60.3934 228.183 60.2518 227.959L55.9796 221.195C55.8379 220.971 55.613 220.812 55.3543 220.754C55.0956 220.695 54.8243 220.742 54.6001 220.884ZM58.0268 228.182L42.8083 237.794L39.6042 232.721L54.8227 223.109L58.0268 228.182Z" fill="black"/>
</g>
<g clip-path="url(#clip1_187_32)">
<path d="M230.352 333.921C229.975 335.192 229.109 336.262 227.943 336.895C226.778 337.527 225.409 337.671 224.137 337.294L190.579 327.352C189.308 326.975 188.238 326.109 187.605 324.943C186.973 323.778 186.829 322.409 187.206 321.137L197.148 287.579C197.525 286.308 198.391 285.238 199.557 284.605C200.722 283.973 202.091 283.829 203.362 284.206L236.921 294.148C238.192 294.525 239.262 295.391 239.894 296.557C240.527 297.722 240.671 299.091 240.294 300.363L230.352 333.921Z" fill="#3B88C3"/>
<path d="M216.387 302.913L216.313 302.891L208.225 311.771L213.316 313.28L216.387 302.913ZM202.907 315.532C201.087 314.993 200.668 313.536 200.955 312.569C201.197 311.752 201.627 311.393 201.961 311.089L214.754 298.467C216.012 297.223 217.251 296.862 219.183 297.435C221.339 298.073 223.049 300.077 222.047 303.458L218.667 314.865L219.3 315.053C220.749 315.482 221.614 316.79 221.174 318.277C220.733 319.764 219.296 320.387 217.847 319.958L217.214 319.771L216.278 322.93C215.694 324.899 214.639 325.597 212.744 325.035C210.848 324.474 210.343 323.314 210.927 321.344L211.863 318.185L202.907 315.532V315.532Z" fill="white"/>
</g>
<rect x="198.4" y="282.475" width="45.5" height="45.5" transform="rotate(16.5034 198.4 282.475)" stroke="black" stroke-width="2"/>
<g clip-path="url(#clip2_187_32)">
<path d="M147.824 124.667C148.269 125.916 148.201 127.291 147.633 128.489C147.065 129.688 146.044 130.611 144.795 131.057L111.833 142.824C110.584 143.269 109.209 143.201 108.01 142.633C106.812 142.065 105.888 141.044 105.443 139.795L93.6763 106.833C93.2305 105.584 93.2991 104.209 93.867 103.01C94.4349 101.812 95.4555 100.888 96.7044 100.443L129.667 88.6764C130.916 88.2306 132.291 88.2992 133.489 88.867C134.688 89.4349 135.611 90.4556 136.057 91.7045L147.824 124.667Z" fill="#3B88C3"/>
<path d="M125.516 106.385C126.338 108.685 126.07 111.044 124.517 113.038C127.575 113.306 130.273 115.099 131.302 117.982C132.866 122.363 130.167 127.482 124.984 129.332C119.581 131.261 114.804 128.481 113.774 125.597C113.266 124.174 114.398 122.618 115.713 122.148C118.194 121.262 119.135 125.742 123.259 124.27C125.158 123.592 126.169 121.585 125.479 119.65C123.655 114.541 118.791 120.514 117.254 116.207C115.886 112.375 121.993 113.116 120.547 109.065C120.052 107.677 118.69 106.97 117.046 107.557C113.579 108.795 115.331 112.203 112.848 113.089C111.352 113.623 109.993 112.584 109.511 111.234C108.495 108.387 111.307 103.926 115.357 102.48C120.614 100.604 124.5 103.538 125.516 106.385Z" fill="white"/>
</g>
<rect x="91.6759" y="101.972" width="45.5" height="45.5" transform="rotate(-19.6443 91.6759 101.972)" stroke="black" stroke-width="2"/>
<g clip-path="url(#clip3_187_32)">
<path d="M613.448 277.333C612.686 278.419 611.524 279.157 610.218 279.386C608.912 279.615 607.568 279.315 606.483 278.554L577.834 258.448C576.748 257.686 576.01 256.524 575.781 255.218C575.552 253.912 575.852 252.568 576.613 251.483L596.719 222.834C597.481 221.748 598.643 221.01 599.949 220.781C601.255 220.552 602.599 220.852 603.684 221.613L632.333 241.719C633.418 242.481 634.157 243.643 634.386 244.949C634.615 246.255 634.315 247.599 633.553 248.684L613.448 277.333Z" fill="#3B88C3"/>
<path d="M612.376 244.821L604.255 239.122C602.542 237.92 602.687 236.365 603.443 235.286C604.223 234.175 605.583 233.52 607.327 234.744L618.811 242.804C620.43 243.939 620.072 245.866 619.493 246.692C619.048 247.326 618.231 247.747 617.294 248.273L598.205 258.74C596.069 259.894 595.276 260.283 593.849 259.281C592.103 258.056 592.15 256.101 592.795 255.181C593.062 254.8 593.358 254.582 593.893 254.294L612.376 244.821Z" fill="white"/>
</g>
<rect x="599.53" y="218.393" width="45.5" height="45.5" transform="rotate(35.0611 599.53 218.393)" stroke="black" stroke-width="2"/>
<g clip-path="url(#clip4_187_32)">
<path d="M650.012 381.479C666.143 375.596 674.451 357.749 668.568 341.618C662.685 325.487 644.839 317.179 628.708 323.062C612.576 328.945 604.269 346.791 610.152 362.922C616.035 379.054 633.881 387.362 650.012 381.479Z" fill="#77C68D"/>
<path d="M655.968 366.406L656.643 368.256C656.685 368.369 656.619 368.51 656.506 368.551L635.396 376.25C635.283 376.291 635.152 376.222 635.111 376.109L634.436 374.258C634.395 374.146 634.454 374.017 634.567 373.976L655.677 366.278C655.79 366.237 655.924 366.283 655.968 366.406ZM658.162 338.505L664.264 355.237C664.518 355.932 664.162 356.68 663.467 356.933L622.59 371.841C621.895 372.094 621.142 371.751 620.889 371.056L610.425 342.365C610.175 341.679 610.524 340.913 611.219 340.659L643.659 328.829C643.715 329.245 643.799 329.65 643.911 330.046L612.758 341.407C612.392 341.541 612.201 341.951 612.334 342.318L622.38 369.863C622.517 370.239 622.924 370.42 623.29 370.287L661.94 356.191C662.307 356.058 662.501 355.657 662.364 355.281L656.471 339.122L658.162 338.505Z" fill="#B3BFEB"/>
<path d="M654.57 339.134L653.579 336.973C652.139 337.051 650.705 336.797 649.376 336.217L647.702 337.902C647.625 337.984 647.548 338.033 647.444 338.071C647.219 338.153 646.952 338.123 646.751 337.951L643.868 335.533C643.58 335.297 643.524 334.881 643.744 334.578L645.113 332.641C644.843 332.25 644.612 331.823 644.416 331.373L613.912 342.498L623.471 368.709L660.796 355.097L655.119 339.53C654.874 339.502 654.674 339.362 654.57 339.134ZM637.818 338.963L639.328 337.444C639.497 337.265 639.748 337.195 639.981 337.248C640.21 337.293 640.411 337.464 640.493 337.69L642.933 344.379C643.066 344.745 642.875 345.155 642.509 345.289C642.142 345.423 641.732 345.232 641.598 344.865L639.539 339.219L638.813 339.942C638.542 340.221 638.087 340.228 637.813 339.944C637.547 339.68 637.544 339.234 637.818 338.963ZM626.722 343.01L628.233 341.49C628.393 341.315 628.644 341.245 628.876 341.298C629.115 341.339 629.316 341.511 629.398 341.736L631.837 348.425C631.971 348.791 631.78 349.202 631.414 349.335C631.038 349.472 630.637 349.278 630.503 348.912L628.444 343.265L627.718 343.988C627.438 344.271 626.992 344.274 626.709 343.994C626.451 343.726 626.448 343.28 626.722 343.01ZM635.185 360.116C633.71 360.653 631.921 359.337 631.106 357.101C630.294 354.874 630.812 352.705 632.287 352.168C633.762 351.63 635.545 352.959 636.357 355.186C637.169 357.412 636.66 359.578 635.185 360.116ZM642.073 356.848C642.206 357.214 642.015 357.625 641.649 357.758C641.273 357.895 640.872 357.701 640.739 357.335L638.68 351.688L637.953 352.411C637.683 352.691 637.227 352.697 636.944 352.417C636.674 352.143 636.668 351.688 636.947 351.405L638.462 349.894C638.621 349.719 638.872 349.649 639.114 349.699C639.343 349.743 639.544 349.915 639.626 350.14L642.073 356.848ZM636.603 347.219C635.128 347.757 633.348 346.437 632.532 344.201C631.72 341.975 632.233 339.819 633.708 339.281C635.182 338.743 636.972 340.059 637.784 342.286C638.599 344.522 638.078 346.681 636.603 347.219ZM646.281 356.069C644.806 356.607 643.016 355.29 642.201 353.055C641.389 350.828 641.907 348.659 643.382 348.121C644.857 347.583 646.65 348.909 647.462 351.136C648.274 353.362 647.756 355.531 646.281 356.069Z" fill="#E1E9FF"/>
<path d="M636.462 342.779C637.014 344.291 636.739 345.669 636.129 345.891C635.518 346.114 634.43 345.233 633.879 343.721C633.331 342.218 633.605 340.84 634.207 340.621C634.817 340.398 635.911 341.266 636.462 342.779Z" fill="#E1E9FF"/>
<path d="M645.794 354.735C646.51 354.474 646.659 353.08 646.127 351.622C645.596 350.164 644.584 349.194 643.868 349.455C643.152 349.716 643.003 351.11 643.535 352.568C644.066 354.026 645.078 354.996 645.794 354.735Z" fill="#E1E9FF"/>
<path d="M635.033 355.669C635.584 357.181 635.31 358.559 634.708 358.778C634.088 359.004 633.001 358.123 632.449 356.611C631.901 355.108 632.172 353.721 632.783 353.498C633.384 353.279 634.484 354.166 635.033 355.669Z" fill="#E1E9FF"/>
<path d="M627.73 343.994L628.457 343.271L630.516 348.918C630.65 349.284 631.05 349.478 631.426 349.341C631.793 349.208 631.984 348.797 631.85 348.431L629.41 341.742C629.328 341.516 629.137 341.342 628.889 341.304C628.656 341.251 628.405 341.321 628.246 341.496L626.735 343.016C626.461 343.286 626.455 343.735 626.728 344.019C627.004 344.28 627.441 344.28 627.73 343.994ZM638.826 339.948L639.552 339.225L641.611 344.871C641.745 345.238 642.155 345.429 642.521 345.295C642.888 345.161 643.079 344.751 642.945 344.385L640.506 337.696C640.423 337.47 640.232 337.295 639.993 337.254C639.761 337.201 639.51 337.271 639.341 337.45L637.83 338.969C637.556 339.24 637.55 339.689 637.833 339.969C638.1 340.234 638.546 340.231 638.826 339.948ZM636.602 347.219C638.077 346.681 638.599 344.522 637.784 342.286C636.972 340.059 635.182 338.743 633.707 339.281C632.232 339.819 631.72 341.975 632.532 344.201C633.347 346.437 635.137 347.754 636.602 347.219ZM634.197 340.624C634.817 340.398 635.905 341.279 636.453 342.782C637.005 344.294 636.73 345.672 636.119 345.895C635.509 346.117 634.421 345.237 633.87 343.724C633.318 342.212 633.596 340.844 634.197 340.624ZM638.465 349.904L636.951 351.414C636.68 351.694 636.674 352.143 636.947 352.426C637.227 352.697 637.673 352.694 637.956 352.42L638.683 351.698L640.742 357.344C640.876 357.71 641.276 357.905 641.652 357.768C642.019 357.634 642.21 357.224 642.076 356.857L639.63 350.15C639.547 349.924 639.356 349.749 639.117 349.708C638.876 349.658 638.625 349.728 638.465 349.904ZM635.185 360.115C636.66 359.578 637.172 357.422 636.357 355.186C635.545 352.959 633.762 351.63 632.287 352.168C630.812 352.705 630.293 354.874 631.105 357.101C631.917 359.327 633.72 360.65 635.185 360.115ZM632.773 353.502C633.384 353.279 634.471 354.16 635.023 355.672C635.575 357.185 635.3 358.562 634.699 358.781C634.079 359.008 632.991 358.127 632.439 356.614C631.891 355.111 632.162 353.724 632.773 353.502ZM646.28 356.069C647.755 355.531 648.277 353.372 647.462 351.136C646.65 348.909 644.857 347.583 643.382 348.121C641.907 348.659 641.389 350.828 642.201 353.054C643.013 355.281 644.815 356.604 646.28 356.069ZM643.868 349.455C644.479 349.233 645.576 350.11 646.128 351.622C646.679 353.135 646.395 354.516 645.794 354.735C645.174 354.961 644.086 354.081 643.535 352.568C642.986 351.065 643.258 349.678 643.868 349.455Z" fill="black"/>
<path d="M623.077 373.175L636.248 368.371L636.26 371.847L634.071 372.646C633.225 372.954 632.784 373.903 633.092 374.748L633.767 376.599C634.075 377.445 635.027 377.896 635.873 377.587L656.983 369.889C657.828 369.58 658.28 368.628 657.968 367.773L657.293 365.922C656.984 365.077 656.036 364.635 655.181 364.947L653.011 365.738L650.782 363.071L663.962 358.264C665.381 357.746 666.128 356.175 665.607 354.747L659.416 337.771C659.463 337.637 659.465 337.498 659.436 337.359L658.812 335.064C659.977 334.203 660.911 333.085 661.555 331.786L663.911 332.002C664.022 332.014 664.123 331.999 664.217 331.965C664.452 331.879 664.627 331.687 664.67 331.427L665.332 327.726C665.401 327.36 665.176 327.006 664.823 326.911L662.525 326.302C662.444 325.586 662.273 324.882 662.026 324.206C661.773 323.51 661.454 322.871 661.058 322.281L662.437 320.341C662.647 320.041 662.591 319.625 662.303 319.389L659.42 316.971C659.132 316.735 658.727 316.766 658.469 317.02L656.795 318.705C655.457 318.129 654.019 317.865 652.595 317.959L651.605 315.797C651.44 315.464 651.059 315.294 650.711 315.421L647.179 316.709C646.841 316.832 646.645 317.201 646.738 317.572L647.365 319.845C646.222 320.709 645.275 321.821 644.625 323.133L642.247 322.914C641.882 322.877 641.547 323.127 641.488 323.489L640.835 327.187C640.766 327.552 640.991 327.907 641.354 327.998L641.59 328.061L610.728 339.316C609.3 339.837 608.57 341.423 609.087 342.842L619.551 371.533C620.084 372.967 621.658 373.692 623.077 373.175ZM655.968 366.405L656.643 368.256C656.684 368.369 656.619 368.51 656.506 368.551L635.396 376.25C635.283 376.291 635.151 376.222 635.11 376.109L634.435 374.258C634.394 374.146 634.454 374.017 634.567 373.976L655.677 366.278C655.789 366.236 655.924 366.283 655.968 366.405ZM651.592 366.256L637.678 371.33L637.667 367.854L649.354 363.591L651.592 366.256ZM642.756 324.4L644.961 324.607C645.005 324.612 645.068 324.61 645.115 324.593C645.156 324.589 645.207 324.581 645.244 324.567C645.254 324.564 645.254 324.564 645.263 324.561C645.32 324.54 645.382 324.507 645.431 324.467C645.481 324.428 645.53 324.389 645.573 324.33C645.61 324.285 645.647 324.24 645.667 324.179C646.273 322.777 647.249 321.601 648.498 320.762L648.507 320.759C648.526 320.752 648.541 320.736 648.551 320.732C648.585 320.709 648.6 320.693 648.631 320.661C648.822 320.484 648.916 320.216 648.842 319.956L648.267 317.824L650.569 316.984L651.495 318.999C651.528 319.061 651.568 319.111 651.61 319.17C651.63 319.194 651.646 319.21 651.675 319.231C651.721 319.268 651.757 319.308 651.817 319.328C651.872 319.362 651.936 319.391 651.999 319.39C652.069 319.407 652.145 319.411 652.218 319.406C652.227 319.402 652.25 319.405 652.259 319.401C653.741 319.233 655.258 319.51 656.643 320.187C656.695 320.211 656.733 320.228 656.787 320.23C656.838 320.254 656.892 320.256 656.946 320.257C657.022 320.261 657.113 320.249 657.189 320.222C657.226 320.208 657.273 320.191 657.307 320.168C657.357 320.129 657.406 320.089 657.45 320.063L659.007 318.495L660.892 320.074L659.605 321.885C659.587 321.923 659.565 321.952 659.551 322C659.529 322.029 659.527 322.052 659.515 322.077C659.5 322.125 659.492 322.16 659.49 322.214C659.485 322.258 659.477 322.293 659.49 322.331C659.491 322.363 659.489 322.385 659.493 322.426C659.512 322.536 659.55 322.639 659.625 322.729C659.628 322.738 659.628 322.738 659.641 322.744C660.069 323.333 660.429 324 660.693 324.724C660.95 325.428 661.107 326.18 661.166 326.925C661.16 326.938 661.16 326.938 661.163 326.947C661.182 327.174 661.299 327.377 661.488 327.489C661.518 327.51 661.543 327.522 661.582 327.54C661.62 327.558 661.646 327.57 661.694 327.584L663.835 328.144L663.406 330.557L661.307 330.376C661.272 330.367 661.237 330.359 661.208 330.369C661.155 330.367 661.101 330.366 661.05 330.373C661 330.381 660.95 330.389 660.903 330.406C660.837 330.43 660.768 330.476 660.71 330.519C660.679 330.551 660.639 330.587 660.608 330.62C660.593 330.636 660.577 330.652 660.581 330.662C660.553 330.704 660.526 330.745 660.502 330.797C659.889 332.181 658.913 333.356 657.655 334.198C657.636 334.205 657.631 334.218 657.621 334.221C657.596 334.241 657.581 334.257 657.556 334.277C657.526 334.309 657.495 334.342 657.464 334.374C657.449 334.39 657.433 334.407 657.431 334.429C657.428 334.451 657.403 334.471 657.398 334.484C657.37 334.526 657.358 334.551 657.344 334.599C657.329 334.647 657.324 334.691 657.319 334.736C657.305 334.784 657.309 334.825 657.313 334.866C657.318 334.907 657.315 334.929 657.329 334.966C657.323 334.979 657.33 334.998 657.333 335.007L657.912 337.149L655.61 337.988L654.674 335.977C654.668 335.958 654.664 335.949 654.651 335.943C654.628 335.909 654.605 335.875 654.582 335.84C654.526 335.776 654.471 335.711 654.397 335.684C654.384 335.678 654.368 335.663 654.346 335.66C654.32 335.648 654.304 335.633 654.295 335.636C654.247 335.622 654.221 335.61 654.173 335.596C654.103 335.579 654.031 335.584 653.955 335.58L653.945 335.583C653.936 335.586 653.914 335.584 653.904 335.587C652.409 335.749 650.883 335.476 649.52 334.802C649.469 334.778 649.43 334.76 649.373 334.749C649.36 334.743 649.338 334.741 649.325 334.735C649.277 334.72 649.227 334.728 649.182 334.723C649.11 334.728 649.028 334.737 648.962 334.761C648.915 334.778 648.871 334.804 648.828 334.831C648.784 334.857 648.735 334.897 648.704 334.929C648.679 334.949 648.658 334.978 648.633 334.998L647.153 336.485L645.268 334.905L646.555 333.094C646.573 333.056 646.595 333.027 646.612 332.988C646.634 332.959 646.646 332.934 646.651 332.889C646.705 332.688 646.683 332.452 646.551 332.266C646.548 332.256 646.548 332.256 646.535 332.25C646.104 331.652 645.747 330.994 645.483 330.271L645.48 330.261C645.226 329.566 645.076 328.833 645.014 328.079C645.007 328.06 645.013 328.047 645.009 328.038C645.008 327.975 644.996 327.915 644.972 327.849C644.952 327.793 644.922 327.74 644.879 327.681C644.853 327.637 644.817 327.597 644.784 327.567L644.781 327.557C644.739 327.53 644.703 327.49 644.652 327.466C644.626 327.454 644.61 327.439 644.6 327.442C644.562 327.424 644.54 327.422 644.492 327.407L644.422 327.39C644.409 327.384 644.387 327.382 644.377 327.385L644.141 327.322L642.331 326.822L642.756 324.4ZM644.397 331.38C644.603 331.827 644.833 332.254 645.094 332.648L643.724 334.584C643.505 334.888 643.561 335.304 643.849 335.539L646.732 337.958C646.933 338.13 647.2 338.16 647.425 338.078C647.529 338.04 647.606 337.991 647.683 337.909L649.357 336.224C650.686 336.804 652.123 337.067 653.56 336.979L654.551 339.141C654.665 339.365 654.865 339.505 655.1 339.537L660.777 355.104L623.471 368.709L613.911 342.498L644.397 331.38ZM610.425 342.365C610.174 341.679 610.523 340.913 611.218 340.659L643.658 328.829C643.714 329.245 643.798 329.65 643.911 330.046L612.758 341.407C612.391 341.541 612.2 341.951 612.334 342.318L622.38 369.863C622.517 370.239 622.924 370.42 623.29 370.287L661.94 356.191C662.306 356.058 662.501 355.657 662.364 355.281L656.471 339.122L658.162 338.505L664.264 355.237C664.517 355.932 664.162 356.68 663.467 356.933L622.59 371.841C621.895 372.094 621.142 371.751 620.888 371.056L610.425 342.365Z" fill="black"/>
<path d="M655.06 332.92C656.517 332.389 657.673 331.328 658.333 329.927C658.993 328.526 659.057 326.949 658.526 325.493C657.995 324.037 656.943 322.877 655.533 322.22C654.123 321.564 652.555 321.497 651.099 322.028C648.093 323.124 646.541 326.458 647.634 329.455C648.717 332.455 652.054 334.016 655.06 332.92ZM651.582 323.353C653.846 322.527 656.368 323.693 657.194 325.957C657.198 325.967 657.198 325.967 657.201 325.976C657.602 327.075 657.547 328.266 657.061 329.327C656.562 330.382 655.686 331.191 654.596 331.588C654.587 331.592 654.587 331.592 654.587 331.592C652.313 332.421 649.788 331.245 648.968 328.968C648.129 326.698 649.308 324.182 651.582 323.353Z" fill="black"/>
<path d="M661.584 327.518C661.549 327.509 661.524 327.497 661.491 327.466C661.311 327.351 661.185 327.152 661.166 326.925C661.163 326.916 661.163 326.916 661.169 326.903C661.106 326.148 660.953 325.406 660.696 324.702C660.432 323.978 660.072 323.311 659.644 322.722C659.631 322.716 659.631 322.716 659.628 322.707C659.552 322.617 659.515 322.514 659.496 322.404C659.495 322.372 659.494 322.34 659.493 322.309C659.489 322.268 659.497 322.233 659.493 322.192C659.498 322.147 659.503 322.103 659.518 322.055C659.526 322.02 659.538 321.994 659.554 321.978C659.568 321.93 659.589 321.901 659.607 321.863L660.895 320.052L659.016 318.491L657.459 320.059C657.419 320.095 657.37 320.135 657.317 320.165C657.196 320.241 657.067 320.267 656.937 320.261C656.883 320.259 656.829 320.257 656.778 320.234C656.733 320.228 656.686 320.214 656.634 320.19C655.258 319.51 653.741 319.233 652.25 319.405C652.24 319.408 652.218 319.406 652.209 319.409C652.136 319.414 652.064 319.419 651.99 319.393C651.923 319.385 651.863 319.365 651.808 319.332C651.757 319.308 651.711 319.271 651.666 319.234C651.637 319.213 651.621 319.198 651.601 319.173C651.552 319.127 651.522 319.074 651.486 319.002L650.572 316.994L648.27 317.833L648.846 319.965C648.91 320.229 648.829 320.503 648.635 320.67C648.613 320.699 648.588 320.719 648.554 320.742C648.535 320.749 648.52 320.765 648.511 320.768L648.501 320.772C647.262 321.607 646.286 322.782 645.671 324.188C645.647 324.24 645.613 324.294 645.577 324.34C645.544 324.394 645.485 324.437 645.435 324.477C645.386 324.516 645.323 324.549 645.267 324.57C645.257 324.573 645.257 324.573 645.248 324.577C645.21 324.59 645.16 324.598 645.119 324.603C645.069 324.61 645.005 324.612 644.964 324.616L642.76 324.409L642.331 326.822L644.109 327.291L644.345 327.354C644.354 327.351 644.377 327.353 644.389 327.359C644.447 327.37 644.517 327.387 644.572 327.421C644.594 327.423 644.61 327.439 644.623 327.445C644.674 327.468 644.707 327.499 644.752 327.536L644.755 327.545C644.797 327.573 644.824 327.616 644.85 327.66C644.89 327.709 644.92 327.762 644.944 327.828C644.964 327.884 644.975 327.944 644.98 328.017C644.987 328.035 644.981 328.048 644.985 328.058C645.047 328.812 645.197 329.545 645.451 330.24L645.454 330.249C645.718 330.973 646.078 331.64 646.506 332.229C646.519 332.235 646.519 332.235 646.522 332.244C646.654 332.43 646.686 332.664 646.622 332.868C646.617 332.912 646.605 332.938 646.584 332.967C646.566 333.005 646.544 333.035 646.526 333.073L645.239 334.884L647.124 336.463L648.604 334.976C648.626 334.947 648.647 334.918 648.675 334.908C648.702 334.866 648.755 334.836 648.799 334.809C648.843 334.783 648.886 334.756 648.933 334.739C648.999 334.715 649.081 334.707 649.153 334.702C649.198 334.707 649.252 334.708 649.296 334.713C649.318 334.716 649.341 334.718 649.344 334.728C649.392 334.742 649.44 334.757 649.491 334.781C650.854 335.454 652.371 335.731 653.875 335.566C653.885 335.563 653.907 335.565 653.916 335.562L653.926 335.558C654.002 335.562 654.074 335.557 654.145 335.574C654.192 335.589 654.218 335.601 654.266 335.615C654.288 335.618 654.304 335.633 654.317 335.639C654.343 335.651 654.359 335.666 654.368 335.663C654.433 335.693 654.498 335.754 654.553 335.819C654.576 335.853 654.596 335.878 654.622 335.922C654.639 335.937 654.642 335.946 654.646 335.956L655.581 337.967L657.883 337.127L657.304 334.986C657.301 334.977 657.294 334.958 657.3 334.945C657.286 334.907 657.289 334.885 657.284 334.844C657.28 334.803 657.282 334.749 657.29 334.714C657.295 334.67 657.301 334.626 657.315 334.578C657.338 334.495 657.383 334.414 657.435 334.353C657.463 334.311 657.487 334.291 657.527 334.255C657.552 334.236 657.568 334.219 657.592 334.2C657.611 334.193 657.617 334.18 657.626 334.177C658.884 333.335 659.86 332.159 660.473 330.775C660.497 330.724 660.515 330.686 660.552 330.64C660.558 330.628 660.573 330.611 660.579 330.598C660.606 330.557 660.65 330.53 660.681 330.498C660.74 330.455 660.808 330.409 660.874 330.385C660.921 330.367 660.971 330.36 661.022 330.352C661.072 330.344 661.135 330.342 661.18 330.348C661.211 330.347 661.246 330.355 661.278 330.354L663.377 330.536L663.806 328.123L661.665 327.563C661.652 327.557 661.614 327.539 661.584 327.518ZM658.33 329.918C657.67 331.319 656.513 332.379 655.066 332.907C655.057 332.91 655.057 332.91 655.057 332.91C652.051 334.007 648.717 332.455 647.63 329.445C646.534 326.439 648.089 323.115 651.095 322.018C652.552 321.487 654.119 321.554 655.53 322.211C656.94 322.867 657.991 324.027 658.522 325.484C659.053 326.94 658.993 328.526 658.33 329.918Z" fill="#FFC064"/>
</g>
<g clip-path="url(#clip5_187_32)">
<path d="M337.664 40.6218C337.968 41.9125 337.747 43.2712 337.05 44.399C336.352 45.5268 335.235 46.3313 333.945 46.6355L299.878 54.6645C298.587 54.9687 297.228 54.7477 296.101 54.0501C294.973 53.3525 294.168 52.2355 293.864 50.9448L285.835 16.8782C285.531 15.5875 285.752 14.2288 286.45 13.101C287.147 11.9732 288.264 11.1687 289.555 10.8645L323.622 2.83551C324.912 2.53131 326.271 2.7523 327.399 3.44987C328.526 4.14745 329.331 5.26446 329.635 6.55517L337.664 40.6218Z" fill="#DD2E44"/>
<path d="M308.888 32.481L316.056 30.7917L309.969 20.6782L309.894 20.696L308.888 32.481ZM305.246 18.884C305.479 16.9976 306.621 15.2554 308.545 14.8021C310.544 14.3309 312.252 15.3218 313.318 16.9814L325.55 35.76C325.917 36.3104 326.118 36.8216 326.181 37.0856C326.527 38.5566 325.559 39.8597 324.165 40.1883C322.58 40.5619 321.592 39.9188 320.948 38.8762L318.981 35.5963L308.493 38.0681L308.189 41.8436C308.087 43.1018 307.489 44.1185 305.943 44.4829C304.434 44.8385 302.885 44.0092 302.53 42.5006C302.387 41.8971 302.469 41.4001 302.5 41.1925L305.246 18.884V18.884Z" fill="white"/>
</g>
<rect x="284.388" y="11.8255" width="45.5" height="45.5" transform="rotate(-13.2617 284.388 11.8255)" stroke="black" stroke-width="2"/>
<path d="M609 294C609 295.326 608.473 296.598 607.536 297.536C606.598 298.473 605.326 299 604 299H569C567.674 299 566.402 298.473 565.464 297.536C564.527 296.598 564 295.326 564 294V259C564 257.674 564.527 256.402 565.464 255.464C566.402 254.527 567.674 254 569 254H604C605.326 254 606.598 254.527 607.536 255.464C608.473 256.402 609 257.674 609 259V294Z" fill="#3B88C3"/>
<path d="M589.446 268.004H579.525C577.433 268.004 576.658 266.648 576.658 265.33C576.658 263.973 577.394 262.655 579.525 262.655H593.555C595.533 262.655 596.346 264.438 596.346 265.446C596.346 266.221 595.92 267.035 595.455 268.004L585.843 287.538C584.758 289.709 584.331 290.483 582.588 290.483C580.455 290.483 579.37 288.855 579.37 287.731C579.37 287.266 579.486 286.918 579.759 286.375L589.446 268.004Z" fill="white"/>
<path fill-rule="evenodd" clip-rule="evenodd" d="M386.933 369.895C469.503 369.895 536.829 302.634 536.829 220.217C536.829 137.8 469.503 70.5972 386.933 70.5972C304.36 70.5972 236.973 137.797 236.973 220.214C236.973 302.63 304.36 369.895 386.933 369.895Z" fill="#71B9F0"/>
<path fill-rule="evenodd" clip-rule="evenodd" d="M380.288 416C449.825 416 506.52 409.998 506.52 402.609C506.52 395.286 449.825 389.284 380.288 389.284C310.687 389.284 253.992 395.286 253.992 402.609C253.995 409.998 310.69 416 380.288 416Z" fill="#B2C0F0"/>
<path fill-rule="evenodd" clip-rule="evenodd" d="M289.365 194.639C289.996 195.143 290.631 195.712 291.262 196.219C308.284 209.797 335.808 212.386 356.813 212.386C384.401 212.386 422.869 209.354 444.509 190.534C445.144 189.965 445.775 189.461 446.407 188.827L449.888 185.482L451.533 190.094C460.518 214.661 468.047 242.133 468.807 268.409C469.439 288.745 465.896 309.837 453.556 326.573C433.626 353.605 398.066 360.111 366.427 360.111C334.03 360.111 298.852 352.658 280.816 322.911C259.05 286.913 271.517 233.041 284.297 195.97L285.816 191.484L289.365 194.639Z" fill="#0F1112"/>
<path fill-rule="evenodd" clip-rule="evenodd" d="M292.845 377.284C291.706 377.852 290.695 378.547 289.746 379.304C286.583 381.954 284.306 386.123 284.747 390.357C285.631 399.766 297.149 401.472 304.677 401.343C309.421 401.281 314.23 401.091 319.041 400.9C325.177 400.583 331.252 400.205 337.326 399.892C340.743 399.701 344.414 399.387 347.831 399.387C352.069 399.387 352.704 392.313 353.274 389.216C354.287 383.218 355.171 377.219 356.246 371.22C357.007 367.429 360.611 364.588 363.775 362.82C365.041 362.064 371.621 358.273 371.303 356.883C370.924 355.496 363.71 356.948 362.256 356.883C341.377 356.443 318.659 352.652 301.323 340.338C300.562 339.766 299.739 337.62 298.855 337.811C297.968 337.937 297.272 340.464 296.767 341.221C294.74 344.44 289.87 352.652 290.375 356.505C291.327 363.325 292.275 370.399 292.845 377.284ZM460.647 375.832C458.624 359.853 456.788 343.939 455.46 327.96C455.334 326.634 455.713 319.876 454.45 319.498C453.184 319.12 450.59 325.245 449.767 326.256C433.885 346.528 408.385 354.042 383.708 356.191C382.377 356.317 376.367 355.496 375.924 356.696C375.545 357.959 380.859 360.803 381.807 361.686C389.653 368.887 395.98 376.97 400.851 386.443C402.243 389.096 403.383 391.811 404.71 394.526C405.721 396.672 407.116 399.39 409.898 399.39C413.123 399.39 416.604 399.704 419.832 399.895C425.971 400.208 432.107 400.586 438.247 400.842C443.181 401.094 448.181 401.284 453.116 401.346C460.074 401.472 470.455 400.021 471.971 391.621C473.24 384.546 467.101 378.04 460.647 375.832Z" fill="#0F1112"/>
<path fill-rule="evenodd" clip-rule="evenodd" d="M287.276 196.975C262.029 270.236 256.524 356.951 366.43 356.951C467.667 356.951 484.246 289.185 448.559 191.164C447.928 191.733 447.296 192.367 446.597 192.932C424.2 212.383 385.097 215.543 356.813 215.543C335.108 215.543 306.953 212.764 289.299 198.682C288.606 198.11 287.91 197.544 287.276 196.975Z" fill="#AAC1CF"/>
<path fill-rule="evenodd" clip-rule="evenodd" d="M299.486 342.866C295.944 348.422 293.285 354.23 293.538 356.062C294.678 364.462 295.817 374.882 296.135 379.433C286.77 381.705 280.569 398.631 304.612 398.191C320.556 397.939 343.841 396.233 347.827 396.233C349.472 396.233 350.547 384.675 353.141 370.655C353.837 366.993 356.622 363.202 362.188 360.044C340.046 359.601 317.078 355.432 299.486 342.866ZM452.296 328.215C453.811 345.897 455.521 360.803 457.736 378.298C469.632 380.573 477.161 398.634 453.18 398.191C437.171 397.939 412.938 396.233 409.903 396.233C406.992 396.233 404.842 378.55 383.96 359.349C409.774 357.138 435.908 349.116 452.296 328.215Z" fill="#1A1F21"/>
<path fill-rule="evenodd" clip-rule="evenodd" d="M428.38 390.486C435.086 392.823 461.282 396.233 464.824 387.516C462.671 376.466 410.849 383.411 428.38 390.486Z" fill="#272D30"/>
<path fill-rule="evenodd" clip-rule="evenodd" d="M336.947 382.969C336.186 382.907 323.849 379.937 311.639 380.377C287.722 381.324 283.481 393.324 305.185 392.82C319.42 392.506 338.275 391.495 336.947 382.969Z" fill="#272D30"/>
<path fill-rule="evenodd" clip-rule="evenodd" d="M357.826 371.98C358.079 374.695 358.331 377.474 358.71 380.063C358.836 381.201 358.457 382.209 357.635 382.907C356.748 383.663 355.737 383.854 354.659 383.537C345.107 380.632 332.262 380.125 322.263 379.872C312.011 379.62 301.698 379.808 291.385 379.494C290.119 379.433 288.979 378.673 288.535 377.41C286.194 371.223 283.474 360.483 284.928 353.913C286.508 346.589 299.292 332.126 304.732 326.379C305.364 325.684 306.251 325.306 307.2 325.368C332.191 326.822 357.185 328.338 382.18 329.915C399.325 330.991 416.412 332.061 433.558 333.389C439.25 333.771 444.949 334.21 450.577 334.779C452.222 334.97 453.932 335.157 455.577 335.348C457.348 335.6 459.31 335.92 459.88 338.063C460.45 340.022 460.829 342.358 461.272 344.378C462.033 348.295 462.852 352.21 463.678 356.188C464.879 362.125 466.084 368.124 467.282 374.126C467.473 375.134 467.217 376.02 466.586 376.776C465.954 377.533 465.067 377.914 464.118 377.914C441.718 377.41 419.637 379.682 397.554 382.969C396.353 383.156 395.213 382.652 394.517 381.705C389.517 374.695 380.535 363.767 370.727 364.969C366.362 365.474 362.437 368.253 359.274 371.223C358.839 371.602 358.331 371.854 357.826 371.98Z" fill="#0F1112"/>
<path fill-rule="evenodd" clip-rule="evenodd" d="M307.018 328.528C307.018 328.528 289.681 346.909 288.036 354.614C286.327 362.319 291.517 376.34 291.517 376.34C309.106 376.908 339.353 375.58 355.55 380.506C355.423 379.623 354.663 372.927 354.41 367.94C354.219 364.973 354.284 362.571 354.724 362.51C355.359 362.384 356.498 364.09 357.13 368.89C368.709 358.153 381.176 357.649 397.12 379.875C419.644 376.53 441.471 374.255 464.189 374.759C464.189 374.759 457.354 340.719 456.849 338.887C456.344 337.054 307.018 328.528 307.018 328.528Z" fill="#AAC1CF"/>
<path fill-rule="evenodd" clip-rule="evenodd" d="M468.746 308.823C469.19 310.083 469.568 311.412 470.009 312.675C471.528 317.601 472.794 322.653 473.933 327.704C475.196 332.947 476.275 338.315 476.971 343.683C477.223 345.516 477.479 347.536 477.605 349.43C477.605 350.38 477.288 351.198 476.592 351.831C475.96 352.529 475.138 352.843 474.189 352.717C455.334 351.263 436.479 349.747 417.685 348.105C416.231 347.979 415.027 346.841 414.839 345.39C413.129 333.958 410.914 322.401 407.754 311.286C398.325 277.815 383.456 253.245 354.54 233.413C353.591 232.783 353.086 231.833 353.148 230.698C353.148 229.625 353.717 228.678 354.666 228.11C362.386 223.436 369.914 218.258 376.75 212.383C377.32 211.94 377.889 211.688 378.583 211.626C399.717 210.11 425.278 205.624 442.239 192.428C442.935 191.859 443.755 191.672 444.642 191.798C445.526 191.924 446.222 192.302 446.792 193.061C458.116 208.536 468.62 227.861 471.848 246.933C474.315 261.205 474.124 276.111 472.227 290.384C471.469 296.318 470.326 302.947 468.746 308.823Z" fill="#0F1112"/>
<path fill-rule="evenodd" clip-rule="evenodd" d="M444.195 194.891C452.231 205.818 465.138 226.154 468.746 247.498C474.124 279.075 465.391 308.949 465.391 308.949C465.391 308.949 467.667 314.757 470.899 328.399C474.062 342.042 474.441 349.618 474.441 349.618C474.441 349.618 447.74 347.536 417.937 344.944C416.61 335.723 414.333 322.966 410.788 310.462C399.461 270.294 381.302 247.935 356.308 230.821C365.925 224.946 373.265 219.516 378.835 214.778C401.864 213.142 427.175 208.155 444.195 194.891Z" fill="white"/>
<path fill-rule="evenodd" clip-rule="evenodd" d="M455.46 212.321C461.22 222.554 466.596 234.806 468.749 247.499C474.127 279.075 465.394 308.949 465.394 308.949C465.394 308.949 467.671 314.757 470.902 328.399C474.066 342.042 474.444 349.618 474.444 349.618C474.444 349.618 447.743 347.536 417.941 344.944C416.678 336.357 414.651 324.734 411.552 313.051C424.397 311.535 436.925 309.767 436.796 309.072C436.669 307.621 433.632 284.189 425.725 263.601C417.814 243.074 426.104 221.791 431.038 215.159C432.81 212.702 442.806 211.817 455.46 212.321Z" fill="#AAC1CF"/>
<path fill-rule="evenodd" clip-rule="evenodd" d="M444.195 194.891C445.208 196.28 446.283 197.796 447.423 199.438C425.91 216.555 397.12 224.195 367.382 223.565C371.873 220.472 375.607 217.502 378.835 214.787C401.864 213.142 427.176 208.155 444.195 194.891Z" fill="#AAC1CF"/>
<path fill-rule="evenodd" clip-rule="evenodd" d="M368.139 243.077C363.901 239.415 359.471 236.07 354.85 232.909C354.154 232.405 353.775 231.581 353.775 230.763C353.775 229.878 354.219 229.121 354.977 228.614C362.696 223.94 370.289 218.698 377.186 212.887C377.63 212.509 378.071 212.321 378.64 212.257C386.425 211.688 394.27 210.802 401.99 209.351C403 209.16 407.051 208.026 407.621 208.973C408.191 209.92 405.092 212.573 404.396 213.391C394.779 225.201 383.831 234.803 371.177 243.329C370.228 243.963 368.962 243.898 368.139 243.077Z" fill="#0F1112"/>
<path fill-rule="evenodd" clip-rule="evenodd" d="M369.787 241.183C365.546 237.521 361.055 234.047 356.308 230.828C365.925 224.952 373.265 219.522 378.835 214.784C386.554 214.215 394.588 213.333 402.437 211.817C393.134 223.184 382.756 232.47 369.787 241.183Z" fill="white"/>
<path fill-rule="evenodd" clip-rule="evenodd" d="M367.382 223.562C371.873 220.469 375.607 217.499 378.835 214.784C386.554 214.215 394.588 213.333 402.437 211.817C399.526 215.353 396.55 218.701 393.325 221.924C384.909 223.184 376.176 223.753 367.382 223.562Z" fill="#AAC1CF"/>
<path d="M390.857 213.649C389.656 214.913 388.516 216.174 387.315 217.376C378.203 226.784 363.965 236.826 363.904 236.826L362.45 234.806C362.514 234.742 376.561 224.89 385.482 215.605C385.987 215.101 386.495 214.596 387.001 214.089C388.264 213.963 389.591 213.775 390.857 213.649Z" fill="#0F1112"/>
<path fill-rule="evenodd" clip-rule="evenodd" d="M449.194 187.25C449.638 186.746 450.208 186.426 450.904 186.239C451.856 185.987 452.044 185.482 452.866 186.048C469.445 197.732 488.047 214.28 495.64 233.54C500.323 245.288 500.828 259.056 491.781 268.908C490.515 270.297 489.058 271.561 487.539 272.634C486.464 273.39 476.97 279.076 475.833 278.442C474.694 277.812 472.926 278.507 473.049 277.243C474.438 263.662 472.858 247.56 456.217 247.748C445.969 247.809 445.525 252.295 442.174 248.129C440.717 246.232 438.628 244.716 436.922 243.074C433.949 240.424 431.355 237.518 429.267 234.108C427.81 231.833 427.684 228.675 428.004 225.518C429.396 210.043 436.734 213.265 438.508 207.393C439.013 205.689 439.583 207.583 440.914 206.32C444.518 203.1 441.419 194.51 445.026 191.223C446.354 190.024 447.746 188.822 449.012 187.496C449.068 187.435 449.133 187.376 449.194 187.25Z" fill="#0F1112"/>
<path fill-rule="evenodd" clip-rule="evenodd" d="M485.197 269.793C502.722 257.479 501.776 224.383 451.03 188.637C450.903 188.889 446.095 194.196 435.338 200.699C434.512 201.329 427.68 225.647 431.919 232.467C435.843 238.717 440.652 242.004 443.563 244.907C452.487 235.495 458.179 233.032 467.226 232.085C469.315 232.024 469.253 233.161 467.544 233.601C453.559 237.266 453.244 239.16 450.145 242.634C463.496 237.143 489.501 240.488 485.197 269.793Z" fill="white"/>
<path fill-rule="evenodd" clip-rule="evenodd" d="M455.647 191.985C454.132 190.848 452.61 189.775 451.027 188.637C450.9 188.889 446.092 194.196 435.335 200.699C435.018 200.951 433.878 204.425 432.806 209.037C441.222 204.49 448.941 198.808 455.647 191.985Z" fill="#AAC1CF"/>
<path fill-rule="evenodd" clip-rule="evenodd" d="M478.427 274.466C490.133 268.843 496.904 260.003 495.638 246.487C490.133 253.497 483.994 250.469 483.994 250.469C477.919 240.488 468.302 238.216 457.04 238.342C457.04 238.342 458.811 237.521 463.05 236.131C467.292 234.677 476.404 232.088 476.404 232.088C476.404 232.088 471.909 229.625 463.367 229.499C454.825 229.438 450.904 232.722 447.993 230.071C445.082 227.356 432.237 213.649 432.237 213.649C432.237 213.649 432.11 213.775 431.984 214.028C430.53 220.724 429.643 228.743 431.919 232.47C435.844 238.72 440.652 242.007 443.563 244.91C452.487 235.498 458.18 233.035 467.227 232.088C469.316 232.027 469.254 233.164 467.544 233.604C453.498 236.636 450.651 241.122 447.553 244.593C460.9 239.098 482.731 245.097 478.427 274.466Z" fill="#AAC1CF"/>
<path fill-rule="evenodd" clip-rule="evenodd" d="M441.157 245.857C429.326 251.034 422.49 260.381 426.984 273.393C430.97 285.016 439.768 291.079 452.17 289.437C460.077 288.364 470.517 283.691 476.718 278.319C477.731 277.941 478.427 277.185 478.68 276.108C479.69 271.561 479.82 266.635 478.871 262.026C478.239 258.614 476.973 255.204 474.946 252.298C467.353 241.057 453.812 241.5 442.174 245.352C441.792 245.479 441.475 245.605 441.157 245.857Z" fill="#0F1112"/>
<path fill-rule="evenodd" clip-rule="evenodd" d="M443.12 248.445C434.196 252.172 429.958 257.353 429.009 263.099C431.729 259.877 436.728 258.487 440.714 257.983C441.537 257.919 442.359 257.792 443.182 257.792C442.171 254.825 445.775 251.351 448.308 250.656C453.621 249.266 461.784 250.973 465.647 254.825C467.671 256.845 466.784 257.54 465.265 256.028C461.661 253.119 453.56 251.606 448.877 252.805C447.297 253.184 444.512 255.52 445.4 257.731C448.246 257.792 450.966 258.235 453.245 258.995C454.955 259.625 456.344 260.381 457.358 261.393C459.385 263.416 463.937 266.952 467.039 267.204C467.609 267.266 468.118 267.33 468.05 267.834C468.05 268.277 466.975 268.339 466.217 268.339C462.166 268.213 458.559 265.685 455.778 262.906C455.017 262.149 453.88 261.577 452.488 261.073C449.389 260 445.085 259.686 441.035 260.191C433.568 261.073 427.114 264.105 429.961 272.379C433.38 282.23 440.591 287.789 451.791 286.273C457.675 285.514 468.558 281.535 475.141 275.472C477.544 274.715 480.076 236.125 443.188 248.313C443.185 248.384 443.12 248.445 443.12 248.445Z" fill="#272D30"/>
<path fill-rule="evenodd" clip-rule="evenodd" d="M429.705 260.32C429.391 261.267 429.135 262.152 429.009 263.099C431.729 259.877 436.728 258.487 440.714 257.983C441.537 257.919 442.359 257.793 443.182 257.793C442.233 255.016 445.332 251.732 447.864 250.782C446.154 250.973 444.257 251.29 442.677 251.92C438.503 253.562 431.353 257.288 429.705 260.32ZM445.652 255.456C445.212 256.215 445.082 256.975 445.4 257.731C448.246 257.793 450.966 258.235 453.245 258.995C454.955 259.625 456.344 260.381 457.358 261.393C459.385 263.416 463.937 266.952 467.039 267.204C467.609 267.266 468.118 267.33 468.05 267.834C468.05 268.277 466.975 268.339 466.217 268.339C462.736 268.213 459.637 266.38 457.044 264.105C456.156 266.823 450.969 270.798 442.935 272.001C438.062 272.696 433.38 272.188 429.711 271.367C429.776 271.684 429.902 272.062 429.964 272.379C433.383 282.23 440.594 287.789 451.795 286.273C457.678 285.514 468.561 281.535 475.144 275.472C476.407 275.281 476.407 268.019 476.281 266.755L470.776 255.136C470.776 255.136 469.636 258.924 467.486 260.883C465.398 262.838 457.238 257.408 452.3 256.335C449.259 255.646 446.918 255.52 445.652 255.456Z" fill="#1A1F21"/>
<path fill-rule="evenodd" clip-rule="evenodd" d="M284.999 120.49L280.952 116.133C250.517 83.4186 278.42 38.639 321.699 60.4907L326.446 62.8921C313.536 68.7001 302.274 77.6074 294.619 91.0591C288.668 101.482 286.644 110.955 284.999 120.49ZM416.483 58.2831C430.53 48.8716 449.576 46.4087 463.114 58.2831C470.202 64.4724 473.745 73.3152 473.871 82.6591C473.998 94.7242 468.493 106.343 461.343 115.816L457.862 120.554C454.573 107.733 449.259 96.489 442.426 87.0805C435.717 77.6075 427.175 69.5856 416.674 63.713L412.183 61.1856L416.483 58.2831Z" fill="#0F1112"/>
<path fill-rule="evenodd" clip-rule="evenodd" d="M320.243 63.3348C279.874 42.9374 255.449 84.1135 283.225 113.926C284.809 106.156 287.024 98.3246 291.894 89.8016C298.855 77.6075 308.79 69.0814 320.243 63.3348Z" fill="#272D30"/>
<path fill-rule="evenodd" clip-rule="evenodd" d="M271.837 92.1352C273.103 99.4006 276.772 106.977 283.226 113.925C284.809 106.156 287.024 98.3245 291.894 89.8015C297.081 80.6421 303.978 73.5703 311.95 68.1989C311.507 68.2634 311.002 68.3895 310.496 68.5155C289.236 73.7579 280.062 101.23 280.062 101.23C280.062 101.23 275.509 97.1899 271.837 92.1352Z" fill="#1A1F21"/>
<path fill-rule="evenodd" clip-rule="evenodd" d="M418.19 60.9366C452.863 37.8212 490.324 71.7379 458.814 113.926C451.535 89.6079 436.919 71.4182 418.19 60.9366Z" fill="#272D30"/>
<path fill-rule="evenodd" clip-rule="evenodd" d="M467.985 70.093C469.503 79.9443 467.101 90.1768 459.76 96.1755C456.661 91.7541 446.283 75.7781 428.438 67.7563C442.233 78.6191 452.925 94.2815 458.811 113.926C471.53 96.9349 473.049 81.2111 467.985 70.093Z" fill="#1A1F21"/>
<path fill-rule="evenodd" clip-rule="evenodd" d="M272.976 164.765C272.912 153.46 276.71 146.007 279.113 135.461C280.252 130.344 281.01 125.163 281.897 120.05C283.795 108.874 286.201 99.4591 291.832 89.4818C308.222 60.8105 339.984 51.8417 370.989 50.1352C386.237 49.3143 401.232 52.2198 414.838 59.1686C447.047 75.5874 462.609 109.31 464.759 144.177C465.899 163.059 461.343 180.114 446.6 192.932C424.203 212.383 385.1 215.543 356.816 215.543C335.111 215.543 306.956 212.764 289.303 198.682C278.546 190.091 273.103 178.408 272.976 164.765Z" fill="#0F1112"/>
<path fill-rule="evenodd" clip-rule="evenodd" d="M276.14 164.765C276.331 185.166 289.429 212.386 356.816 212.386C449.068 212.386 463.561 176.827 461.599 144.365C457.989 85.8167 418.572 50.7685 371.177 53.2959C341.377 54.8732 310.373 63.3347 294.616 91.0621C285.443 107.167 285.569 120.871 282.153 136.155C279.873 146.449 276.075 153.46 276.14 164.765Z" fill="white"/>
<path fill-rule="evenodd" clip-rule="evenodd" d="M278.61 178.973C284.811 195.899 304.424 212.383 356.816 212.383C449.068 212.383 463.561 176.824 461.599 144.362C459.384 108.428 443.692 81.3341 420.916 66.3635C445.528 101.227 456.917 162.299 423.824 183.582C398.321 199.878 305.438 207.205 278.61 178.973Z" fill="#AAC1CF"/>
<path fill-rule="evenodd" clip-rule="evenodd" d="M297.402 109.565C284.242 124.471 294.556 138.052 311.387 138.114C323.345 138.178 334.736 131.356 336.255 119.038C337.647 107.167 331.634 100.787 323.41 99.2744C315.117 97.8201 304.616 101.417 297.402 109.565Z" fill="#272D30"/>
<path fill-rule="evenodd" clip-rule="evenodd" d="M398.322 108.747C412.181 124.41 401.042 139.061 383.327 139.122C370.799 139.187 358.776 131.986 357.257 119.038C355.738 106.598 362.066 99.9046 370.669 98.3242C379.405 96.7439 390.793 100.157 398.322 108.747Z" fill="#272D30"/>
<path d="M392.5 114.62C393.196 114.051 393.326 113.039 392.756 112.409C392.186 111.714 391.111 111.588 390.415 112.157C386.302 115.376 373.962 118.725 368.522 118.912C367.574 118.912 366.877 119.672 366.877 120.492C366.939 121.375 367.7 122.073 368.649 122.073C374.785 121.882 387.821 118.22 392.5 114.62Z" fill="white"/>
<path d="M304.869 114.365C304.172 113.86 303.224 114.051 302.718 114.807C302.213 115.502 302.404 116.514 303.162 116.954C306.769 119.355 320.816 122.636 325.119 122.322C326.006 122.322 326.703 121.566 326.638 120.68C326.573 119.795 325.815 119.161 324.928 119.226C321.318 119.419 307.906 116.388 304.869 114.365Z" fill="white"/>
<path fill-rule="evenodd" clip-rule="evenodd" d="M340.934 139.817C335.43 139.817 329.86 141.776 329.42 144.807C328.659 149.924 336.569 153.902 340.934 153.902C345.364 153.902 353.21 149.924 352.449 144.807C352.008 141.776 346.504 139.817 340.934 139.817Z" fill="#272D30"/>
<path d="M342.514 151.501C342.514 150.619 341.818 149.924 340.931 149.924C340.047 149.924 339.351 150.619 339.351 151.501V162.742C339.351 163.815 338.972 164.762 338.337 165.522C336.566 167.732 333.15 168.553 330.427 168.553C327.328 168.553 324.035 167.603 321.38 165.46C320.748 164.891 319.735 165.017 319.165 165.712C318.656 166.407 318.721 167.354 319.417 167.923C322.646 170.512 326.693 171.711 330.427 171.711C334.16 171.711 338.399 170.512 340.805 167.48L340.931 167.354C341.248 167.797 341.627 168.178 342.006 168.556C344.852 171.019 349.22 171.84 352.889 171.84C359.533 171.84 367.253 169.313 371.935 164.073C372.505 163.44 372.44 162.431 371.809 161.863C371.113 161.294 370.164 161.355 369.529 161.989C365.543 166.472 358.773 168.682 352.889 168.682C350.04 168.682 346.309 168.113 344.094 166.219C343.081 165.337 342.514 164.199 342.514 162.745V151.501V151.501Z" fill="#272D30"/>
<path fill-rule="evenodd" clip-rule="evenodd" d="M403.386 142.658C407.689 142.658 411.105 144.177 411.105 146.071C411.105 147.965 407.689 149.542 403.386 149.542C399.147 149.542 395.667 147.965 395.667 146.071C395.667 144.177 399.144 142.658 403.386 142.658Z" fill="#FC2D34"/>
<path fill-rule="evenodd" clip-rule="evenodd" d="M293.163 142.658C297.466 142.658 300.882 144.177 300.882 146.071C300.882 147.965 297.466 149.542 293.163 149.542C288.924 149.542 285.443 147.965 285.443 146.071C285.443 144.177 288.921 142.658 293.163 142.658Z" fill="#FC2D34"/>
<path fill-rule="evenodd" clip-rule="evenodd" d="M205.084 222.997C199.771 225.204 197.62 231.141 197.62 236.574C197.556 240.928 198.634 246.361 199.771 250.595C201.48 257.162 204.136 263.856 207.995 269.541C210.145 272.76 212.677 275.666 215.715 278.129C222.233 283.245 234.253 283.688 241.593 280.401C241.849 280.275 242.102 280.149 242.354 279.958C242.924 280.21 243.494 280.275 244.19 280.21C251.466 279.198 261.271 277.369 267.918 274.651C267.601 282.611 267.536 307.811 271.144 313.177C270.891 318.481 270.447 323.787 269.816 328.965C269.058 335.216 267.666 341.722 266.021 347.785C265.704 348.858 265.959 349.931 266.717 350.752C267.475 351.573 268.488 351.887 269.563 351.761C281.334 349.805 293.671 349.489 305.502 349.615C319.361 349.808 333.217 350.817 346.946 352.142C371.118 354.54 395.164 358.141 419.142 361.87C420.152 362.061 421.039 361.744 421.8 361.111C422.558 360.416 422.875 359.534 422.81 358.522C422.367 353.344 421.609 348.102 420.848 342.986C419.203 331.806 416.927 320.501 413.828 309.573C406.105 282.039 394.021 258.355 372.319 239.215C358.843 227.28 343.025 218.375 327.016 210.292C326.699 210.166 326.446 210.104 326.129 210.04C313.98 207.955 301.008 203.977 291.265 196.21C289.872 195.072 288.545 193.873 287.279 192.61C286.647 191.915 285.825 191.598 284.873 191.663C283.924 191.724 283.102 192.167 282.532 192.926C270.383 208.779 251.719 225.767 232.103 231.261C231.662 231.39 231.28 231.575 230.963 231.83C224.509 224.386 215.397 218.763 205.084 222.997Z" fill="#0F1112"/>
<path fill-rule="evenodd" clip-rule="evenodd" d="M283.607 211.626C282.467 210.55 281.392 209.416 280.379 208.214C277.911 205.182 295.121 202.845 292.971 199.626C291.323 197.289 289.176 194.005 286.961 192.299C285.569 191.291 283.607 191.543 282.532 192.929C269.939 209.351 249.756 227.664 229.001 232.024C227.861 232.211 227.038 232.971 226.659 233.982C226.277 234.994 226.407 236.129 227.103 237.011C230.963 242.192 234.823 247.243 237.164 253.368C240.01 261.138 239.631 268.843 237.29 276.61C236.973 277.686 237.164 278.759 237.86 279.577C238.621 280.398 239.569 280.84 240.706 280.65C250.197 279.448 258.991 277.996 267.724 273.892C268.673 273.449 269.557 272.883 270.383 272.185C273.482 269.722 268.42 258.546 269.813 254.881C271.458 250.589 272.659 246.1 274.242 241.746C278.925 228.734 272.976 225.45 283.481 216.294C284.177 215.725 284.556 214.907 284.556 214.019C284.556 213.081 284.238 212.257 283.607 211.626Z" fill="#0F1112"/>
<path fill-rule="evenodd" clip-rule="evenodd" d="M243.743 277.117C252.855 275.792 262.537 273.836 269.369 270.552C270.13 270.236 270.761 269.796 271.393 269.289C270.888 283.561 270.509 298.4 274.369 312.168C274.369 312.168 274.051 320.568 272.976 329.349C271.901 338.128 269.055 348.612 269.055 348.612C310.246 341.919 377.695 352.21 419.647 358.78C419.647 358.78 417.497 334.275 410.787 310.468C395.222 255.33 366.747 233.795 325.556 213.142C312.205 210.87 299.107 206.513 289.299 198.682C287.781 197.48 286.327 196.154 285.061 194.829C270.697 213.588 251.463 229.189 232.925 234.299L233.177 234.551C243.682 248.636 248.425 260.255 243.743 277.117Z" fill="white"/>
<path fill-rule="evenodd" clip-rule="evenodd" d="M273.925 310.465C274.052 311.033 274.243 311.602 274.369 312.168C274.369 312.168 274.178 316.906 273.608 322.969C276.584 324.104 279.304 325.242 281.454 326.253C290.504 330.674 314.42 331.431 314.42 331.431C314.42 331.431 312.775 340.461 306.575 341.473C300.374 342.481 280.126 344.062 269.055 348.609C310.246 341.916 377.695 352.206 419.647 358.777C419.647 358.777 417.685 336.043 411.549 313.054C400.222 314.379 388.643 315.452 385.227 315.452C378.077 315.452 374.596 312.927 374.596 312.927C374.596 312.927 367.699 319.495 356.437 319.747C345.24 319.999 337.329 315.2 337.329 315.2C337.329 315.2 296.452 312.675 273.925 310.465Z" fill="#AAC1CF"/>
<path fill-rule="evenodd" clip-rule="evenodd" d="M243.744 277.117C252.855 275.792 262.537 273.836 269.369 270.552C270.066 270.236 270.762 269.796 271.332 269.35C271.711 257.162 275.382 244.845 276.775 239.541C278.229 234.111 283.672 218.572 283.672 218.572C274.055 227.919 274.56 236.38 266.332 243.71C265.383 237.078 263.547 235.058 258.043 231.141C260.193 236.7 261.333 242.886 260.07 248.824C260.07 248.824 248.555 251.603 242.29 249.583C245.897 257.983 246.654 266.509 243.744 277.117Z" fill="#AAC1CF"/>
<path fill-rule="evenodd" clip-rule="evenodd" d="M230.584 236.448C240.709 249.9 245.327 261.015 240.266 277.563C235.583 279.647 224.195 280.846 217.739 275.669C204.262 264.932 200.719 242.764 200.781 236.577C200.781 232.408 202.3 227.608 206.286 225.902C212.234 223.501 221.029 225.585 226.786 231.458C223.684 231.332 220.838 233.038 219.636 236.51C218.687 239.418 218.814 243.52 220.838 248.132C222.547 252.237 223.936 254.195 225.711 257.605C226.598 257.54 226.598 256.972 226.533 256.154C226.533 256.089 226.342 253.119 223.684 246.933C222.039 243.08 221.913 239.732 222.67 237.46C223.875 233.795 227.926 233.795 230.584 236.448Z" fill="#272D30"/>
<path fill-rule="evenodd" clip-rule="evenodd" d="M240.515 253.94C242.921 261.015 243.047 268.465 240.262 277.559C235.58 279.644 224.192 280.843 217.735 275.666C204.259 264.929 200.716 242.76 200.778 236.574C200.778 234.551 201.092 232.405 201.917 230.572C202.675 236.383 204.068 244.91 207.613 251.416C212.295 260.068 221.342 268.216 221.342 268.216C221.342 268.216 220.329 266.509 220.458 262.592C220.649 258.678 221.721 256.028 221.721 256.028C221.721 256.028 216.281 248.513 216.469 243.646C216.66 238.785 219.95 235.75 219.95 235.75C219.824 236.002 219.759 236.254 219.633 236.506C218.684 239.415 218.81 243.517 220.834 248.129C222.544 252.233 223.933 254.192 225.707 257.602C226.595 257.537 226.595 256.968 226.53 256.151C226.53 256.086 226.339 253.116 223.68 246.93C222.036 243.077 221.909 239.729 222.667 237.457C222.858 236.952 223.049 236.506 223.363 236.128C223.298 236.885 223.237 238.022 223.489 239.541C224.059 243.458 229.182 254.318 229.499 255.142C229.878 256.024 227.158 259.816 226.841 263.035C226.527 266.192 232.728 270.297 237.028 267.582C240.832 265.307 240.644 256.341 240.515 253.94Z" fill="#1A1F21"/>
<path d="M268.233 272.508C268.168 273.329 268.802 274.088 269.687 274.147C270.574 274.211 271.331 273.578 271.396 272.695C271.713 267.327 272.41 261.328 273.42 255.265C274.242 249.897 275.382 244.528 276.775 239.538C277.027 238.714 277.914 235.999 277.027 235.747C272.662 238.462 270.635 252.421 270.259 254.758C269.308 260.95 268.611 267.013 268.233 272.508Z" fill="#0F1112"/>
<path fill-rule="evenodd" clip-rule="evenodd" d="M395.666 355.623C394.021 338.823 391.933 321.14 387.568 304.78C384.592 293.474 380.48 283.054 373.9 273.329C370.231 267.899 365.992 262.909 361.436 258.171C339.988 235.941 305.25 217.88 282.027 198.488C281.14 197.732 281.013 196.468 281.709 195.521L283.228 193.437C283.61 192.868 284.177 192.616 284.873 192.554C285.504 192.554 286.074 192.745 286.58 193.249C287.846 194.574 289.238 195.773 290.692 196.976C300.5 204.807 313.533 208.85 325.744 210.931C325.996 210.996 326.187 211.058 326.378 211.122C342.323 219.205 358.017 228.174 371.494 239.984C393.072 259.059 405.218 282.424 412.938 309.835C415.975 320.697 418.251 331.941 419.896 343.121C420.719 348.237 421.415 353.476 421.859 358.593C421.923 359.288 421.668 359.921 421.162 360.425C420.654 360.868 420.023 361.055 419.327 360.994C412.051 359.859 404.775 358.722 397.56 357.649C396.55 357.455 395.792 356.696 395.666 355.623Z" fill="#0F1112"/>
<path fill-rule="evenodd" clip-rule="evenodd" d="M325.368 213.142C366.371 233.733 395.348 255.837 410.787 310.468C417.494 334.278 419.647 358.78 419.647 358.78C412.941 357.707 405.662 356.57 397.881 355.435C392.311 299.162 384.213 278.639 363.017 256.658C341.82 234.742 297.592 209.228 283.48 196.85L284.999 194.765C286.33 196.152 287.719 197.418 289.302 198.682C299.107 206.51 312.079 210.802 325.368 213.142Z" fill="white"/>
<path fill-rule="evenodd" clip-rule="evenodd" d="M411.548 313.057C417.685 336.046 419.647 358.78 419.647 358.78C412.941 357.707 405.662 356.569 397.881 355.435C396.297 339.33 394.461 326.192 392.247 315.08C397.437 314.634 404.525 313.877 411.548 313.057Z" fill="#AAC1CF"/>
<path fill-rule="evenodd" clip-rule="evenodd" d="M325.368 213.142C330.238 215.544 334.92 218.006 339.415 220.531C323.47 217.438 307.905 212.069 293.603 204.616C289.49 201.649 286.01 199.06 283.478 196.85L284.996 194.765C286.327 196.152 287.716 197.418 289.3 198.682C299.108 206.51 312.079 210.802 325.368 213.142Z" fill="#AAC1CF"/>
<path d="M284.999 194.765C285.125 194.891 346.629 228.491 360.676 240.11C376.746 253.436 388.643 270.805 396.741 290.003C405.665 311.224 409.965 334.718 410.03 357.074H407.498C407.436 335.032 403.259 311.916 394.4 290.95C386.492 272.13 374.787 255.075 359.031 242.066C345.172 230.57 283.607 196.908 283.419 196.782L284.999 194.765Z" fill="#0F1112"/>
<path fill-rule="evenodd" clip-rule="evenodd" d="M271.458 297.517C281.519 299.35 291.706 300.801 301.893 302C319.799 304.085 337.832 305.41 355.864 305.727C363.393 305.853 370.921 305.727 378.453 305.348C397.878 304.401 417.429 302.191 436.663 299.221C446.662 297.64 456.914 295.998 466.845 293.791C467.603 293.6 468.302 293.726 468.995 294.107C475.196 297.517 473.995 307.494 471.084 312.675C469.63 315.329 461.784 316.971 459.061 317.665C450.898 319.686 442.482 321.204 434.193 322.53C410.086 326.382 384.968 328.402 360.543 327.833C354.786 327.643 348.9 327.265 343.142 326.886C334.286 326.382 325.427 325.752 316.632 324.989C306.507 324.23 296.385 323.347 286.259 322.21C283.096 321.832 271.769 320.756 269.302 318.926C267.278 317.536 266.138 310.148 266.012 308.002C265.759 304.718 266.265 301.118 268.479 298.529C269.243 297.643 270.321 297.33 271.458 297.517Z" fill="#0F1112"/>
<path fill-rule="evenodd" clip-rule="evenodd" d="M270.888 300.613C280.444 302.384 314.673 308.131 355.8 308.887C404.396 309.834 461.911 298.089 467.48 296.887C472.162 299.414 470.009 308.192 468.302 311.16C466.784 313.874 413.443 325.936 360.673 324.676C346.626 324.298 275.189 319.304 271.141 316.405C271.015 316.337 266.841 305.225 270.888 300.613Z" fill="#272D30"/>
<path fill-rule="evenodd" clip-rule="evenodd" d="M435.844 302.51C452.863 299.922 465.077 297.394 467.48 296.887C472.162 299.414 470.009 308.192 468.302 311.16C466.783 313.874 413.443 325.936 360.673 324.676C346.626 324.298 275.188 319.304 271.141 316.405C271.076 316.34 269.939 313.435 269.431 310.025C290.44 312.297 337.323 315.203 337.323 315.203C337.323 315.203 345.234 320.002 356.431 319.75C367.693 319.498 374.59 312.931 374.59 312.931C374.59 312.931 378.071 315.455 385.221 315.455C392.435 315.455 436.977 310.465 436.787 309.075C436.728 308.635 436.478 306.234 435.844 302.51Z" fill="#1A1F21"/>
<path fill-rule="evenodd" clip-rule="evenodd" d="M354.98 304.211C363.522 304.211 374.596 304.654 375.036 315.895V316.147C375.542 316.211 376.05 316.337 376.493 316.716C389.021 326.508 392.946 344.566 397.69 358.903C398.007 359.789 397.816 360.736 397.181 361.431C396.55 362.126 395.663 362.378 394.714 362.19C389.083 360.926 384.466 360.862 378.705 361.621C378.009 361.683 377.313 361.492 376.808 361.049C376.238 360.61 375.92 359.976 375.859 359.281C375.098 348.984 372.19 335.597 364.788 327.954C364.662 327.889 364.597 327.763 364.532 327.701C361.369 328.461 357.952 328.713 354.98 328.713C350.868 328.713 345.806 328.209 341.817 326.438C336.06 334.334 336.63 350.439 336.882 359.786C336.882 360.542 336.565 361.237 335.995 361.744C335.425 362.248 334.729 362.439 333.972 362.375C329.416 361.68 325.744 360.859 321.191 362.313C320.43 362.565 319.608 362.439 318.911 361.935C318.28 361.428 317.898 360.733 317.898 359.85C318.024 344.062 318.847 323.283 333.402 313.493C333.972 313.115 334.668 312.989 335.299 313.115C337.326 304.592 347.199 304.211 354.98 304.211Z" fill="#0F1112"/>
<path fill-rule="evenodd" clip-rule="evenodd" d="M354.98 306.738C347.639 306.738 337.834 306.677 337.452 316.024C337.138 324.866 348.018 326.192 354.98 326.192C361.939 326.192 372.822 324.866 372.507 316.024C372.19 306.677 362.321 306.738 354.98 306.738Z" fill="#272D30"/>
<path fill-rule="evenodd" clip-rule="evenodd" d="M337.514 315.267C337.514 315.519 337.449 315.772 337.449 316.024C337.135 324.866 348.015 326.192 354.977 326.192C361.935 326.192 372.818 324.866 372.504 316.024C372.504 315.519 372.439 315.077 372.378 314.634C369.47 316.592 363.9 319.56 356.434 319.75C346.247 319.941 338.783 316.024 337.514 315.267Z" fill="#1A1F21"/>
<path fill-rule="evenodd" clip-rule="evenodd" d="M334.858 315.581C321.381 324.611 320.559 344.443 320.433 359.918C325.494 358.276 329.353 359.094 334.353 359.853C334.1 350.319 333.466 333.389 339.919 324.737C336.756 322.969 334.667 320.254 334.797 315.959C334.793 315.833 334.858 315.707 334.858 315.581ZM366.559 326.256C374.531 334.401 377.568 348.425 378.39 359.097C384.527 358.34 389.209 358.402 395.283 359.73C390.096 344.003 386.55 327.772 374.91 318.677C373.961 322.717 370.606 324.989 366.559 326.256Z" fill="#1A1F21"/>
<path fill-rule="evenodd" clip-rule="evenodd" d="M334.859 315.581C323.28 323.348 321.065 339.075 320.56 353.095L323.914 353.599C323.914 353.599 323.788 350.316 323.914 348.357C324.04 346.398 326.191 340.145 326.191 340.145C326.191 340.145 326.191 341.66 326.382 344.944C326.508 348.292 327.016 354.291 327.395 354.291C327.712 354.291 330.623 354.165 330.623 354.165C330.623 354.165 329.992 341.47 330.562 336.292C331.132 331.114 334.927 324.673 334.357 323.154C333.725 321.638 332.964 319.744 334.8 315.956C334.794 315.833 334.859 315.707 334.859 315.581ZM376.62 324.74C380.036 328.654 385.353 338.761 386.489 342.358C387.565 345.959 388.957 350.38 388.957 350.758C388.957 351.201 386.868 351.893 386.111 350.316C385.35 348.674 384.718 345.959 383.896 344.692C383.009 343.431 383.391 347.093 383.517 347.914C383.705 348.797 381.302 348.797 380.541 343.936C379.78 339.071 376.999 330.422 375.415 328.59C373.835 326.696 376.62 324.74 376.62 324.74Z" fill="#272D30"/>
<path fill-rule="evenodd" clip-rule="evenodd" d="M227.738 143.165C237.986 145.059 245.644 152.955 247.668 162.554C248.05 162.619 248.429 162.68 248.808 162.745C256.78 164.199 262.096 171.84 260.639 179.862C259.182 187.819 251.528 193.123 243.491 191.672C240.962 191.229 238.682 190.156 236.846 188.575C232.226 191.545 226.659 193.061 220.837 192.492C216.472 202.092 194.454 199.629 192.806 188.514C180.721 188.957 171.104 178.091 173.319 166.029C175.217 155.735 185.151 148.854 195.526 150.748C198.184 151.19 200.59 152.202 202.675 153.589C208.057 145.754 217.739 141.398 227.738 143.165Z" fill="#BFEAFF"/>
<path fill-rule="evenodd" clip-rule="evenodd" d="M198.122 141.84C202.487 141.84 206.156 138.492 206.156 134.449C206.156 130.409 202.487 127.122 198.122 127.122C193.693 127.122 190.085 130.409 190.085 134.449C190.089 138.492 193.696 141.84 198.122 141.84Z" fill="#BFEAFF"/>
<path fill-rule="evenodd" clip-rule="evenodd" d="M241.972 140.069C248.108 140.069 253.043 135.522 253.043 129.966C253.043 124.41 248.108 119.863 241.972 119.863C235.897 119.863 230.962 124.41 230.962 129.966C230.962 135.522 235.897 140.069 241.972 140.069Z" fill="#BFEAFF"/>
<path fill-rule="evenodd" clip-rule="evenodd" d="M545.179 185.039C549.673 172.596 576.057 173.734 576.562 189.393C585.927 180.741 597.568 187.69 595.926 199.118C619.589 200.32 603.707 228.675 572.45 220.782C568.59 231.707 547.077 230.695 546.128 223.814C487.662 245.097 488.423 191.794 510.377 196.529C507.912 178.847 535.057 168.744 545.179 185.039Z" fill="#BFEAFF"/>
<path fill-rule="evenodd" clip-rule="evenodd" d="M512.721 102.368C507.912 94.8531 490.702 99.4589 492.664 109.821C475.645 106.789 474.379 135.715 500.005 129.904C504.117 136.533 518.164 132.681 517.785 128.072C552.458 141.081 551.571 105.965 537.337 104.83C536.258 92.8269 516.96 90.1796 512.721 102.368Z" fill="#BFEAFF"/>
<path fill-rule="evenodd" clip-rule="evenodd" d="M543.156 169.817C549.736 169.817 555.052 164.952 555.052 158.954C555.052 152.952 549.739 148.091 543.156 148.091C536.641 148.091 531.259 152.955 531.259 158.954C531.259 164.952 536.641 169.817 543.156 169.817Z" fill="#BFEAFF"/>
<path fill-rule="evenodd" clip-rule="evenodd" d="M573.654 174.994C578.084 174.994 581.691 171.711 581.691 167.671C581.691 163.627 578.084 160.279 573.654 160.279C569.225 160.279 565.621 163.627 565.621 167.671C565.618 171.711 569.225 174.994 573.654 174.994Z" fill="#BFEAFF"/>
<defs>
<filter id="filter0_d_187_32" x="221" y="39" width="467" height="360" filterUnits="userSpaceOnUse" color-interpolation-filters="sRGB">
<feFlood flood-opacity="0" result="BackgroundImageFix"/>
<feColorMatrix in="SourceAlpha" type="matrix" values="0 0 0 0 0 0 0 0 0 0 0 0 0 0 0 0 0 0 127 0" result="hardAlpha"/>
<feOffset dx="2" dy="2"/>
<feComposite in2="hardAlpha" operator="out"/>
<feColorMatrix type="matrix" values="0 0 0 0 0 0 0 0 0 0 0 0 0 0 0 0 0 0 1 0"/>
<feBlend mode="normal" in2="BackgroundImageFix" result="effect1_dropShadow_187_32"/>
<feBlend mode="normal" in="SourceGraphic" in2="effect1_dropShadow_187_32" result="shape"/>
</filter>
<clipPath id="clip0_187_32">
<rect width="64" height="64" fill="white" transform="translate(0 241.177) rotate(-32.2777)"/>
</clipPath>
<clipPath id="clip1_187_32">
<rect x="197.725" y="281.232" width="47.5" height="47.5" transform="rotate(16.5034 197.725 281.232)" fill="white"/>
</clipPath>
<clipPath id="clip2_187_32">
<rect x="90.3979" y="101.367" width="47.5" height="47.5" transform="rotate(-19.6443 90.3979 101.367)" fill="white"/>
</clipPath>
<clipPath id="clip3_187_32">
<rect x="599.286" y="217" width="47.5" height="47.5" transform="rotate(35.0611 599.286 217)" fill="white"/>
</clipPath>
<clipPath id="clip4_187_32">
<rect width="64" height="64" fill="white" transform="translate(599 332.928) rotate(-20.0367)"/>
</clipPath>
<clipPath id="clip5_187_32">
<rect x="283.185" y="11.0816" width="47.5" height="47.5" transform="rotate(-13.2617 283.185 11.0816)" fill="white"/>
</clipPath>
</defs>
</svg>
