<svg width="30" height="30" viewBox="0 0 30 30" fill="none" xmlns="http://www.w3.org/2000/svg">
<path d="M28.1251 12.8064C27.9709 13.1742 27.7097 13.4872 27.3753 13.7045C27.0409 13.9219 26.6488 14.0336 26.2501 14.0252H23.9345L17.8126 20.1095V22.5002C17.8126 22.7612 17.7612 23.0196 17.6613 23.2607C17.5614 23.5019 17.415 23.721 17.2305 23.9055C17.0459 24.0901 16.8268 24.2365 16.5857 24.3364C16.3446 24.4363 16.0861 24.4877 15.8251 24.4877C15.5638 24.4895 15.3048 24.4389 15.0633 24.3391C14.8218 24.2393 14.6027 24.0922 14.4189 23.9064L10.9032 20.3908L4.34074 26.9533C4.25359 27.0412 4.1499 27.1109 4.03565 27.1585C3.92141 27.2061 3.79887 27.2306 3.67511 27.2306C3.55135 27.2306 3.42882 27.2061 3.31457 27.1585C3.20033 27.1109 3.09664 27.0412 3.00949 26.9533C2.92162 26.8661 2.85187 26.7624 2.80428 26.6482C2.75668 26.534 2.73218 26.4114 2.73218 26.2877C2.73218 26.1639 2.75668 26.0414 2.80428 25.9271C2.85187 25.8129 2.92162 25.7092 3.00949 25.622L9.57199 19.0595L6.10324 15.5439C5.83796 15.2648 5.65947 14.9146 5.58947 14.536C5.51947 14.1573 5.56097 13.7665 5.70893 13.411C5.85689 13.0555 6.10494 12.7506 6.42293 12.5334C6.74091 12.3163 7.11514 12.1961 7.50011 12.1877H9.88136L15.9376 6.06579V3.69392C15.9346 3.30049 16.049 2.91511 16.2661 2.58702C16.4833 2.25894 16.7933 2.00306 17.1567 1.8521C17.52 1.70114 17.9201 1.66194 18.3058 1.73953C18.6915 1.81712 19.0453 2.00796 19.322 2.28767L27.6751 10.6408C27.9573 10.9159 28.1509 11.269 28.2311 11.6548C28.3113 12.0407 28.2744 12.4417 28.1251 12.8064Z" fill="black"/>
</svg>
