<svg width="80" height="80" viewBox="0 0 80 80" fill="none" xmlns="http://www.w3.org/2000/svg">
<g clip-path="url(#clip0_55_261)">
<path d="M43.3102 28.461L29.6984 14.8492L32.1733 12.3744L29.6984 9.89948L9.89943 29.6985L12.3743 32.1733L14.8492 29.6985L28.461 43.3103C28.461 43.3103 27.2236 51.9723 32.1733 56.9221C33.4107 58.1595 38.608 53.9522 43.8052 48.755L49.2499 54.1997C50.9823 55.9321 53.2097 57.1696 55.6846 58.1595L59.3969 59.397L58.1595 55.6846C57.417 53.4573 56.1796 51.2299 54.1997 49.25L48.755 43.8052C53.9522 38.608 57.912 33.1633 56.922 32.1733C51.9723 27.2236 43.3102 28.461 43.3102 28.461ZM33.6582 38.608C33.6582 38.608 33.1632 40.5879 33.1632 46.0326C33.1632 50.9824 34.1532 54.4472 34.1532 54.4472C34.1532 54.4472 31.9258 51.7248 31.4308 47.765C30.9359 42.8153 31.1833 41.0829 31.1833 41.0829L17.3241 27.2236L19.7989 24.7487L33.6582 38.608Z" fill="#444444"/>
</g>
<defs>
<clipPath id="clip0_55_261">
<rect width="56" height="56" fill="white" transform="translate(0 39.5979) rotate(-45)"/>
</clipPath>
</defs>
</svg>
